/* XPM */
static char *result[] = {
/* columns rows colors chars-per-pixel */
"64 64 5 1 ",
"  c #071F00",
". c #133B07",
"X c #1B4B0B",
"o c #235B13",
"O c #3B7727",
/* pixels */
"                                                                ",
" oOOOOOOOOOOOOOOOOOOOOOOOOOOOOo  oOOOOOOOOOOOOOOOOOOOOOOOOOOOOo ",
" OoOOOOOOOOOOOOOOOOOOOOOOOOOOoX  OoOOOOOOOOOOOOOOOOOOOOOOOOOOoX ",
" OOoOOOOOOOOOOOOOOOOOOOOOOOOoXX  OOoOOOOOOOOOOOOOOOOOOOOOOOOoXX ",
" OOOooooooooooooooooooooooooXXX  OOOooooooooooooooooooooooooXXX ",
" OOOOoooooooooooooooooooooooXXX  OOOOoooooooooooooooooooooooXXX ",
" OOOOoooooooooooooooooooooooXXX  OOOOoooooooooooooooooooooooXXX ",
" OOOOoooooooooooooooooooooooXXX  OOOOoooooooooooooooooooooooXXX ",
" OOOOooooOOooooooooooooOOoooXXX  OOOOooooOOooooooooooooOOoooXXX ",
" OOOOoooOoo.ooooooooooOoo.ooXXX  OOOOoooOoo.ooooooooooOoo.ooXXX ",
" OOOOoooOoo.ooooooooooOoo.ooXXX  OOOOoooOoo.ooooooooooOoo.ooXXX ",
" OOOOoooX..XooooooooooX..XooXXX  OOOOoooX..XooooooooooX..XooXXX ",
" OOOOooooXXooooooooooooXXoooXXX  OOOOooooXXooooooooooooXXoooXXX ",
" OOOOoooooooooooooooooooooooXXX  OOOOoooooooooooooooooooooooXXX ",
" OOOOoooooooooooooooooooooooXXX  OOOOoooooooooooooooooooooooXXX ",
" OOOOoooooooooooooooooooooooXXX  OOOOoooooooooooooooooooooooXXX ",
" OOOOoooooooooooooooooooooooXXX  OOOOoooooooooooooooooooooooXXX ",
" OOOOooooOOooooooooooooOOoooXXX  OOOOooooOOooooooooooooOOoooXXX ",
" OOOOoooOoo.ooooooooooOoo.ooXXX  OOOOoooOoo.ooooooooooOoo.ooXXX ",
" OOOOoooOoo.ooooooooooOoo.ooXXX  OOOOoooOoo.ooooooooooOoo.ooXXX ",
" OOOOoooX..XooooooooooX..XooXXX  OOOOoooX..XooooooooooX..XooXXX ",
" OOOOooooXXooooooooooooXXoooXXX  OOOOooooXXooooooooooooXXoooXXX ",
" OOOOoooooooooooooooooooooooXXX  OOOOoooooooooooooooooooooooXXX ",
" OOOOoooooooooooooooooooooooXXX  OOOOoooooooooooooooooooooooXXX ",
" OOOOoooooooooooooooooooooooXXX  OOOOoooooooooooooooooooooooXXX ",
" OOOOoooooooooooooooooooooooXXX  OOOOoooooooooooooooooooooooXXX ",
" OOOOooooOOooooooooooooOOoooXXX  OOOOooooOOooooooooooooOOoooXXX ",
" OOOOoooOoo.ooooooooooOoo.ooXXX  OOOOoooOoo.ooooooooooOoo.ooXXX ",
" OOOOoooOoo.ooooooooooOoo.ooXXX  OOOOoooOoo.ooooooooooOoo.ooXXX ",
" OOOOoooX..XooooooooooX..XooXXX  OOOOoooX..XooooooooooX..XooXXX ",
" OOOOooooXXooooooooooooXXoooXXX  OOOOooooXXooooooooooooXXoooXXX ",
" OOOOoooooooooooooooooooooooXXX  OOOOoooooooooooooooooooooooXXX ",
" OOOOoooooooooooooooooooooooXXX  OOOOoooooooooooooooooooooooXXX ",
" OOOOoooooooooooooooooooooooXXX  OOOOoooooooooooooooooooooooXXX ",
" OOOOoooooooooooooooooooooooXXX  OOOOoooooooooooooooooooooooXXX ",
" OOOOooooOOooooooooooooOOoooXXX  OOOOooooOOooooooooooooOOoooXXX ",
" OOOOoooOoo.ooooooooooOoo.ooXXX  OOOOoooOoo.ooooooooooOoo.ooXXX ",
" OOOOoooOoo.ooooooooooOoo.ooXXX  OOOOoooOoo.ooooooooooOoo.ooXXX ",
" OOOOoooX..XooooooooooX..XooXXX  OOOOoooX..XooooooooooX..XooXXX ",
" OOOOooooXXooooooooooooXXoooXXX  OOOOooooXXooooooooooooXXoooXXX ",
" OOOOoooooooooooooooooooooooXXX  OOOOoooooooooooooooooooooooXXX ",
" OOOOoooooooooooooooooooooooXXX  OOOOoooooooooooooooooooooooXXX ",
" OOOOoooooooooooooooooooooooXXX  OOOOoooooooooooooooooooooooXXX ",
" OOOOoooooooooooooooooooooooXXX  OOOOoooooooooooooooooooooooXXX ",
" OOOOooooOOooooooooooooOOoooXXX  OOOOooooOOooooooooooooOOoooXXX ",
" OOOOoooOoo.ooooooooooOoo.ooXXX  OOOOoooOoo.ooooooooooOoo.ooXXX ",
" OOOOoooOoo.ooooooooooOoo.ooXXX  OOOOoooOoo.ooooooooooOoo.ooXXX ",
" OOOOoooX..XooooooooooX..XooXXX  OOOOoooX..XooooooooooX..XooXXX ",
" OOOOooooXXooooooooooooXXoooXXX  OOOOooooXXooooooooooooXXoooXXX ",
" OOOOoooooooooooooooooooooooXXX  OOOOoooooooooooooooooooooooXXX ",
" OOOOoooooooooooooooooooooooXXX  OOOOoooooooooooooooooooooooXXX ",
" OOOOoooooooooooooooooooooooXXX  OOOOoooooooooooooooooooooooXXX ",
" OOOOoooooooooooooooooooooooXXX  OOOOoooooooooooooooooooooooXXX ",
" OOOOooooOOooooooooooooOOoooXXX  OOOOooooOOooooooooooooOOoooXXX ",
" OOOOoooOoo.ooooooooooOoo.ooXXX  OOOOoooOoo.ooooooooooOoo.ooXXX ",
" OOOOoooOoo.ooooooooooOoo.ooXXX  OOOOoooOoo.ooooooooooOoo.ooXXX ",
" OOOOoooX..XooooooooooX..XooXXX  OOOOoooX..XooooooooooX..XooXXX ",
" OOOOooooXXooooooooooooXXoooXXX  OOOOooooXXooooooooooooXXoooXXX ",
" OOOOoooooooooooooooooooooooXXX  OOOOoooooooooooooooooooooooXXX ",
" OOOooooooooooooooooooooooooXXX  OOOooooooooooooooooooooooooXXX ",
" OOo........................XXX  OOo........................XXX ",
" Oo..........................XX  Oo..........................XX ",
" o............................X  o............................X ",
"                                                                "
};
