/* XPM */
static char *result[] = {
/* columns rows colors chars-per-pixel */
"64 64 203 2 ",
"   c #040102",
".  c #0B0505",
"X  c #0B0708",
"o  c #0E0A0B",
"O  c #090809",
"+  c #130C0C",
"@  c #16110E",
"#  c #1A130F",
"$  c #170F10",
"%  c #0C1514",
"&  c #151112",
"*  c #1B1413",
"=  c #1F1814",
"-  c #1C191A",
";  c #131A18",
":  c #230E0E",
">  c #240E10",
",  c #211615",
"<  c #231A15",
"1  c #281E17",
"2  c #241C1A",
"3  c #2A1D1B",
"4  c #201719",
"5  c #341A16",
"6  c #311A09",
"7  c #25201B",
"8  c #2C231C",
"9  c #2D251A",
"0  c #38261B",
"q  c #291F20",
"w  c #2C2322",
"e  c #272828",
"r  c #342A23",
"t  c #3B2D24",
"y  c #362D29",
"u  c #3B2E2C",
"i  c #3D2326",
"p  c #3E3125",
"a  c #36302A",
"s  c #3D332C",
"d  c #292F32",
"f  c #3B3735",
"g  c #510F12",
"h  c #451214",
"j  c #541B1C",
"k  c #561316",
"l  c #490811",
"z  c #7D1B1E",
"x  c #6B191C",
"c  c #462918",
"v  c #4F3017",
"b  c #5B3A1F",
"n  c #6E3F1E",
"m  c #73301E",
"M  c #4F1D21",
"N  c #501E28",
"B  c #492D2B",
"V  c #502F28",
"C  c #413227",
"Z  c #43342A",
"A  c #44392E",
"S  c #4A3A2D",
"D  c #48372C",
"F  c #5E312A",
"G  c #5A3927",
"H  c #443634",
"J  c #4B3632",
"K  c #4C3B35",
"L  c #433D3C",
"P  c #4C3D3A",
"I  c #423B36",
"U  c #513E3D",
"Y  c #5C3935",
"T  c #692825",
"R  c #772729",
"E  c #71302A",
"W  c #6F3A30",
"Q  c #3E413D",
"!  c #4D4136",
"~  c #564535",
"^  c #53423D",
"/  c #594739",
"(  c #5D4B3D",
")  c #5A4434",
"_  c #674121",
"`  c #6C4032",
"'  c #614D3F",
"]  c #6D4239",
"[  c #7A4A3D",
"{  c #764F2E",
"}  c #3D4B4C",
"|  c #444241",
" . c #4A4543",
".. c #494C4C",
"X. c #554241",
"o. c #5D4C40",
"O. c #534F4F",
"+. c #504A43",
"@. c #58544F",
"#. c #4C5357",
"$. c #645041",
"%. c #6A5748",
"&. c #735D4C",
"*. c #7E5049",
"=. c #7A5850",
"-. c #7D6654",
";. c #7A6554",
":. c #6F6F69",
">. c #636E74",
",. c #7C7D79",
"<. c #68757C",
"1. c #862228",
"2. c #95282D",
"3. c #972F32",
"4. c #803531",
"5. c #943D3D",
"6. c #A0282F",
"7. c #B32E34",
"8. c #A73235",
"9. c #B6373A",
"0. c #A82F37",
"q. c #C3363D",
"w. c #C1393F",
"e. c #814919",
"r. c #814E24",
"t. c #934126",
"y. c #8F5A2C",
"u. c #A95A22",
"i. c #B9662B",
"p. c #A36135",
"a. c #C47332",
"s. c #D77834",
"d. c #B03F43",
"f. c #C23B41",
"g. c #D93F46",
"h. c #E33B4A",
"j. c #864546",
"k. c #964446",
"l. c #8F5944",
"z. c #875240",
"x. c #9A5C49",
"c. c #886349",
"v. c #846F5C",
"b. c #996B50",
"n. c #A56849",
"m. c #A67348",
"M. c #B6784A",
"N. c #AC6B54",
"B. c #A26952",
"V. c #B06D56",
"C. c #AD7357",
"Z. c #B87757",
"A. c #CB4044",
"S. c #CA4548",
"D. c #D94247",
"F. c #DD464B",
"G. c #D64448",
"H. c #C55E4D",
"J. c #E5494D",
"K. c #E7444B",
"L. c #E44A50",
"P. c #E94B50",
"I. c #F54A54",
"U. c #ED5A53",
"Y. c #FF5259",
"T. c #FF5053",
"R. c #C87942",
"E. c #C7695C",
"W. c #C27A5E",
"Q. c #C2745D",
"!. c #F46A5B",
"~. c #C47C65",
"^. c #C87F62",
"/. c #D6803B",
"(. c #FE8C3A",
"). c #F38638",
"_. c #F8923F",
"`. c #EB8439",
"'. c #B9834E",
"]. c #82847F",
"[. c #91857B",
"{. c #AA8E7A",
"}. c #DC8344",
"|. c #F28E4A",
" X c #ED944E",
".X c #EF9943",
"XX c #FF9542",
"oX c #F0905C",
"OX c #FDA648",
"+X c #CC8265",
"@X c #D6866B",
"#X c #DE8D71",
"$X c #DD9175",
"%X c #F89262",
"&X c #E18F72",
"*X c #E89475",
"=X c #F19778",
"-X c #FCA661",
";X c #F9B972",
":X c #73828B",
">X c #F39E81",
",X c #F7A382",
"<X c None",
/* pixels */
"<X<X<X<X<X<X<X<X<X<X<X<X<X<X<X<X<X<X<X<X<X<X<X<X<X<X<X<X<X<X<X<X<X<X<X<X<X<X<X<X<X<X<X<X<X<X<X<X<X<X<X<X<X<X<X<X<X<X<X<X<X<X<X<X",
"<X<X<X<X<X<X<X<X<X<X<X<X<X<X<X<X<X<X<X<X<X<X<X<X<X<X<X<X<X<X<X<X<X<X<X<X<X<X<X<X<X<X<X<X<X<X<X<X<X<X<X<X<X<X<X<X<X<X<X<X<X<X<X<X",
"<X<X<X<X<X<X<X<X<X<X<X<X<X<X<X<X<X<X<X<X<X<X<X<X<X<X<X<X<X<X<X<X<X<X<X<X<X<X<X<X<X<X<X<X<X<X<X<X<X<X<X<X<X<X<X<X<X<X<X<X<X<X<X<X",
"<X<X<X<X<X<X<X<X<X<X<X<X<X<X<X<X<X<X<X<X<X<X<X<X<X<X<X<X<X<X<X<X<X<X<X<X<X<X<X<X<X<X<X<X<X<X<X<X<X<X<X<X<X<X<X<X<X<X<X<X<X<X<X<X",
"<X<X<X<X<X<X<X<X<X<X<X<X<X<X<X<X<X<X<X<X<X<X<X<X<X<X<X<X<X<X<X<X<X<X<X<X<X<X<X<X<X<X<X<X<X<X<X<X<X<X<X<X<X<X<X<X<X<X<X<X<X<X<X<X",
"<X<X<X<X<X<X<X<X<X<X<X<X<X<X<X<X<X<X<X<X<X<X<X<X<X<X<X<X<X<X<X<X<X<X<X<X<X<X<X<X<X<X<X<X<X<X<X<X<X<X<X<X<X<X<X<X<X<X<X<X<X<X<X<X",
"<X<X<X<X<X<X<X<X<X<X<X<X<X<X<X<X<X<X<X<X<X<X<X<X<X<X<X<X<X<X<X<X<X<X<X<X<X<X<X<X<X<X<X<X<X<X<X<X<X<X<X<X<X<X<X<X<X<X<X<X<X<X<X<X",
"<X<X<X<X<X<X<X<X<X<X<X<X<X<X<X<X<X<X<X<X<X<X<X<X<X<X<X<X<X<X<X<X<X<X<X<X<X<X<X<X<X<X<X<X<X<X<X<X<X<X<X<X<X<X<X<X<X<X<X<X<X<X<X<X",
"<X<X<X<X<X<X<X<X<X<X<X<X<X<X<X<X<X<X<X<X<X<X<X<X<X<X<X<X<X<X<X<X<X<X<X<X<X<X<X<X<X<X<X<X<X<X<X<X<X<X<X<X<X<X<X<X<X<X<X<X<X<X<X<X",
"<X<X<X<X<X<X<X<X<X<X<X<X<X<X<X<X<X<X<X<X<X<X<X<X<X<X<X<X<X<X<X<X<X<X<X<X<X<X<X<X<X<X<X<X<X<X<X<X<X<X<X<X<X<X<X<X<X<X<X<X<X<X<X<X",
"<X<X<X<X<X<X<X<X<X<X<X<X<X<X<X<X<X<X<X<X<X<X<X<X<X<X<X<X<X<X<X<X<X<X<X<X<X<X<X<X<X<X<X<X<X<X<X<X<X<X<X<X<X<X<X<X<X<X<X<X<X<X<X<X",
"<X<X<X<X<X<X<X<X<X<X<X<X<X<X<X<X<X<X<X<X<X<X<X<X<X<X<X<X<X<X<X<X<X<X<X<X<X<X<X<X<X<X<X<X<X<X<X<X<X<X<X<X<X<X<X<X<X<X<X<X<X<X<X<X",
"<X<X<X<X<X<X<X<X<X<X<X<X<X<X<X<X<X<X<X<X<X<X<X<X<X<X<X<X<X<X<X<X<X<X<X<X<X<X<X<X<X<X<X<X<X<X<X<X<X<X<X<X<X<X<X<X<X<X<X<X<X<X<X<X",
"<X<X<X<X<X<X<X<X<X<X<X<X<X<X<X<X<X<X<X<X<X<X<X<X<X<X<X<X<X<X<X<X<X<X<X<X<X<X<X<X<X<X<X<X<X<X<X<X<X<X<X<X<X<X<X<X<X<X<X<X<X<X<X<X",
"<X<X<X<X<X<X<X<X<X<X<X<X<X<X<X<X<X<X<X<X<X<X<X<X<X<X<X<X<X<X<X<X<X<X<X<X<X<X<X<X<X<X<X<X<X<X<X<X<X<X<X<X<X<X<X<X<X<X<X<X<X<X<X<X",
"<X<X<X<X<X<X<X<X<X<X<X<X<X<X<X<X<X<X<X<X<X<X<X<X<X<X<X<X<X<X<X<X<X<X<X<X<X<X<X<X<X<X<X<X<X<X<X<X<X<X<X<X<X<X<X<X<X<X<X<X<X<X<X<X",
"<X<X<X<X<X<X<X<X<X<X<X<X<X<X<X<X<X<X<X<X<X<X<X<X<X<X<X<X<X<X<X<X<X<X<X<X<X<X<X<X<X<X<X<X<X<X<X<X<X<X<X<X<X<X<X<X<X<X<X<X<X<X<X<X",
"<X<X<X<X<X<X<X<X<X<X<X<X<X<X<X<X<X<X<X<X<X<X<X<X<X<X<X<X<X<X<X<X<X<X<X<X<X<X<X<X<X<X<X<X<X<X<X<X<X<X<X<X<X<X<X<X<X<X<X<X<X<X<X<X",
"<X<X<X<X<X<X<X<X<X<X<X<X<X<X<X<X<X<X<X<X<X<X<X<X<X<X<X<X<X<X<X<Xi.`.s.<X<X<X<X<X<X<X<X<X<X<X<X<X<X<X<X<X<X<X<X<X<X<X<X<X<X<X<X<X",
"<X<X<X<X<X<X<X<X<X<X<X<X<X<X<X<X<X<X<X<X<X<X<X<X<X<X<X<X<X<X<X.XOXXX(.(.'.<X<X<X<X<X<X<X<X<X<X<X<X<X<X<X<X<X<X<X<X<X<X<X<X<X<X<X",
"<X<X<X<X<X<X<X<X<X<X<X<X<X<X<X<X<X<X<X<X<X<X<X<X<X<X<X<X<X<Xi.OX.X_.).).;X<X<X<X<X<X<X<X<X<X<X<X<X<X<X<X<X<X<X<X<X<X<X<X<X<X<X<X",
"<X<X<X<X<X<X<X<X<X<X<X<X<X<X<X<X<X<X<X<X<X<X<X<X<X<X<X<X<X<X5 C c c v n m.<X<X<X<X<X<X<X<X<X<X<X<X<X<X<X<X<X<X<X<X<X<X<X<X<X<X<X",
"<X<X<X<X<X<X<X<X<X<X<X<X<X<X<X<X<X<X<X<X<X<X<X<X<X<X<X<X<X<X<Xu Y B G *.0 <X<X<X<X<X<X<X<X<X<X<X<X<X<X<X<X<X<X<X<X<X<X<X<X<X<X<X",
"<X<X<X<X<X<X<X<X<X<X<X<X<X<X<X<X<X<X<X<X<X<X<Xc.<X<X<X<X<X<X<X[ ~.C.B.b.s <X<X<X<X<X<X<X<X<X<X<X<X<X<X<X<X<X<X<X<X<X<X<X<X<X<X<X",
"<X<X<X<X<X<X<X<X<X<X<X<X<X<X<X<X<X<X<X2 0 @.,.:X@...! @ + # % H =.U t ] E : <X<X<X<X<X<X<X<X<X<X<X<X<X<X<X<X<X<X<X<X<X<X<X<X<X<X",
"<X<X<X<X<X<X<X<X<X<X<X<X<X<X<X<X<X<X2 - & . & - < Z.M.@ % ; 3 5 B j 1.7.5.J 5.<X<X<X<X<X<X<X<X<X<X<X<X<X<X<X<X<X<X<X<X<X<X<X<X<X",
"<X<X<X<X<X<X<X<X<X<X<X<X<X<X<X<X<X<X<X<Xp.R.u.u. X X<X<X<X<Xj h 9.K.7.J f d.I.I.!.H.<X<X<X<X<X<X<X<X<X<X<X<X<X<X<X<X<X<X<X<X<X<X",
"<X<X<X<X<X<X<X<X<X<X<X<X<X<X<X<X<X<X<X<X}.-X|.-X-Xe.<X<XF 9.2.f.h.g.W F S.Y.K.J.%X;X<X<X<X<X<X<X<X<X<X<X<X<X<X<X<X<X<X<X<X<X<X<X",
"<X<X<X<X<X<X<X<X<X<X<X<X<X<X<X<X<X<X<X<X;.{.[.[.,.} M E 5.k.k.k.j.[ F D.Y.F.G.g.U.%X!.<X<X<X<X<X<X<X<X<X<X<X<X<X<X<X<X<X<X<X<X<X",
"<X<X<X<X<X<X<X<X<X<X<X<X<X<X<X<X<X<X<X<X#.:X<.>.:.c.m B L |  . . .L K P.T.F.S.F.I.g.I.8.<X<X<X<X<X<X<X<X<X<X<X<X<X<X<X<X<X<X<X<X",
"<X<X<X<X<X<X<X<X<X<X<X<X<X<X<X<X<X<X<X<X<X'.Z.R./.i.x f  .X.X.U X.X.Q 5.K.f.A.F.F.S.A.J.R <X<X<X<X<X<X<X<X<X<X<X<X<X<X<X<X<X<X<X",
"<X<X<X<X<X<X<X<X<X<X<X<X<X<X<X<X<X<X<X<X<X).).s.a.t.V H U X.U X.U U P Y 0.x h 3.J.L.L.L.K.<X<X<X<X<X<X<X<X<X<X<X<X<X<X<X<X<X<X<X",
"<X<X<X<X<X<X<X<X<X<X<X<X<X<X<X<X<X<X<X<X<X<Xm.C.W l i | P X.P U U U P f R z . h g.J.P.F.w.1.<X<X<X<X<X<X<X<X<X<X<X<X<X<X<X<X<X<X",
"<X<X<X<X<X<X<X<X<X<X<X<X<X<X<X<X<X<X<X<X<X<Xj.E.3.g u P U ^ P P P P U I u R g <X2.q.q.w.8.T <X<X<X<X<X<X<X<X<X<X<X<X<X<X<X<X<X<X",
"<X<X<X<X<X<X<X<X<X<X<X<X<X<X<X<X<X<X<X<X<X<X<X6.z M f P U X.P P U P K H y 3 > <XF E.Z.N.B.G <X<X<X<X<X<X<X<X<X<X<X<X<X<X<X<X<X<X",
"<X<X<X<X<X<X<X<X<X<X<X<X<X<X<X<X<X<X<X<X<X<X<X<X<X3 I P u u H H H P P H H y ; <X<X,X*X+XV.<X<X<X<X<X<X<X<X<X<X<X<X<X<X<X<X<X<X<X",
"<X<X<X<X<X<X<X<X<X<X<X<X<X<X<X<X<X<X<X<X<X<X<X<X<X<Xu D H s r u u w 7 w q w o <XV.=X@XQ.B.<X<X<X<X<X<X<X<X<X<X<X<X<X<X<X<X<X<X<X",
"<X<X<X<X<X<X<X<X<X<X<X<X<X<X<X<X<X<X<X<X<X<X<X<X| A 9 p %.=.;.v.-.o.s 9 *   <X<X^.*X+X~.l.<X<X<X<X<X<X<X<X<X<X<X<X<X<X<X<X<X<X<X",
"<X<X<X<X<X<X<X<X<X<X<X<X<X<X<X<X<X<X<X<X<X<X<X<XO.p 0 0 w ( &.v.v.&.~ s p * <X<X~.*X^.W.G <X<X<X<X<X<X<X<X<X<X<X<X<X<X<X<X<X<X<X",
"<X<X<X<X<X<X<X<X<X<X<X<X<X<X<X<X<X<X<X<X<X<X<Xy O.- 2 8 H $.~ ) ) / K @ * <X<X<X@X&XW.N.<X<X<X<X<X<X<X<X<X<X<X<X<X<X<X<X<X<X<X<X",
"<X<X<X<X<X<X<X<X<X<X<X<X<X<X<X<X<X<X<X<X<X<X<XL ..= 2 u ' &.%.' ( $.( 2   <X<X$X>X^.~.l.<X<X<X<X<X<X<X<X<X<X<X<X<X<X<X<X<X<X<X<X",
"<X<X<X<X<X<X<X<X<X<X<X<X<X<X<X<X<X<X<X<X<X<X<X<X+ * q q D / ' ' / ~ p - $ <X#X,X@XZ.Z.[ <X<X<X<X<X<X<X<X<X<X<X<X<X<X<X<X<X<X<X<X",
"<X<X<X<X<X<X<X<X<X<X<X<X<X<X<X<X<X<X<X<X<X<X<X<X<X2 q 3 C D S S S S 8 & * B x.@X+XN.N.W <X<X<X<X<X<X<X<X<X<X<X<X<X<X<X<X<X<X<X<X",
"<X<X<X<X<X<X<X<X<X<X<X<X<X<X<X<X<X<X<X<X<X<X<X<X<X* 4 3 r C Z Z C C * + o <Xz.n.[ ` F <X<X<X<X<X<X<X<X<X<X<X<X<X<X<X<X<X<X<X<X<X",
"<X<X<X<X<X<X<X<X<X<X<X<X<X<X<X<X<X<X<X<X<X<X<X<X<X+ + # 0 C Z Z p t o $ o <X<X5 <X<X<X<X<X<X<X<X<X<X<X<X<X<X<X<X<X<X<X<X<X<X<X<X",
"<X<X<X<X<X<X<X<X<X<X<X<X<X<X<X<X<X<X<X<X<X<X<X<X<X    X , 1 1 < 1 = . = * <X<X<X<X<X<X<X<X<X<X<X<X<X<X<X<X<X<X<X<X<X<X<X<X<X<X<X",
"<X<X<X<X<X<X<X<X<X<X<X<X<X<X<X<X<X<X<X<X<X<X<X<X<X+ .               + 2 & <X<X<X<X<X<X<X<X<X<X<X<X<X<X<X<X<X<X<X<X<X<X<X<X<X<X<X",
"<X<X<X<X<X<X<X<X<X<X<X<X<X<X<X<X<X<X<X<X<X<X<X<X<X, o @ .     .     . 2 # <X<X<X<X<X<X<X<X<X<X<X<X<X<X<X<X<X<X<X<X<X<X<X<X<X<X<X",
"<X<X<X<X<X<X<X<X<X<X<X<X<X<X<X<X<X<X<X<X<X<X<X<X<Xo + # +   <X. 0 ) p ; - <X<X<X<X<X<X<X<X<X<X<X<X<X<X<X<X<X<X<X<X<X<X<X<X<X<X<X",
"<X<X<X<X<X<X<X<X<X<X<X<X<X<X<X<X<X<X<X<X<X<X<X<X<XS e * $ X <X<Xm.m.n./ d <X<X<X<X<X<X<X<X<X<X<X<X<X<X<X<X<X<X<X<X<X<X<X<X<X<X<X",
"<X<X<X<X<X<X<X<X<X<X<X<X<X<X<X<X<X<X<X<X<X<X<X<X<X_ ~ e - % O <Xr.y.y.{ f <X<X<X<X<X<X<X<X<X<X<X<X<X<X<X<X<X<X<X<X<X<X<X<X<X<X<X",
"<X<X<X<X<X<X<X<X<X<X<X<X<X<X<X<X<X<X<X<X<X<X<X<X<X6 b y q o   X v r.r._ y - <X<X<X<X<X<X<X<X<X<X<X<X<X<X<X<X<X<X<X<X<X<X<X<X<X<X",
"<X<X<X<X<X<X<X<X<X<X<X<X<X<X<X<X<X<X<X<X<X<X<X<X<X<X<X2 * + . . = c b p - * o <X<X<X<X<X<X<X<X<X<X<X<X<X<X<X<X<X<X<X<X<X<X<X<X<X",
"<X<X<X<X<X<X<X<X<X<X<X<X<X<X<X<X<X<X<X<X<X<X<X<X<X<X<X. * = & # + @ 2 2 2 , <X<X<X<X<X<X<X<X<X<X<X<X<X<X<X<X<X<X<X<X<X<X<X<X<X<X",
"<X<X<X<X<X<X<X<X<X<X<X<X<X<X<X<X<X<X<X<X<X<X<X<X<X<X<X<X& = * * o + 2 2 2 & & <X<X<X<X<X<X<X<X<X<X<X<X<X<X<X<X<X<X<X<X<X<X<X<X<X",
"<X<X<X<X<X<X<X<X<X<X<X<X<X<X<X<X<X<X<X<X<X<X<X<X<X<X<X<X$ * $ & + + 3 2 * * * <X<X<X<X<X<X<X<X<X<X<X<X<X<X<X<X<X<X<X<X<X<X<X<X<X",
"<X<X<X<X<X<X<X<X<X<X<X<X<X<X<X<X<X<X<X<X<X<X<X<X<X<X<X<X+ # @ @ + o , 2 = * + <X<X<X<X<X<X<X<X<X<X<X<X<X<X<X<X<X<X<X<X<X<X<X<X<X",
"<X<X<X<X<X<X<X<X<X<X<X<X<X<X<X<X<X<X<X<X<X<X<X<X<X<X<X<X<X& # @ @ o = , & + + <X<X<X<X<X<X<X<X<X<X<X<X<X<X<X<X<X<X<X<X<X<X<X<X<X",
"<X<X<X<X<X<X<X<X<X<X<X<X<X<X<X<X<X<X<X<X<X<X<X<X<X<X<X<X<X& @ o . + # * = + o <X<X<X<X<X<X<X<X<X<X<X<X<X<X<X<X<X<X<X<X<X<X<X<X<X",
"<X<X<X<X<X<X<X<X<X<X<X<X<X<X<X<X<X<X<X<X<X<X<X<X<X<X<X<X<X<X<X7 9 < * + + + <X<X<X<X<X<X<X<X<X<X<X<X<X<X<X<X<X<X<X<X<X<X<X<X<X<X",
"<X<X<X<X<X<X<X<X<X<X<X<X<X<X<X<X<X<X<X<X<X<X<X<X<X<X<X<X<X<X= r 9 7 7 = 2 @ <X<X<X<X<X<X<X<X<X<X<X<X<X<X<X<X<X<X<X<X<X<X<X<X<X<X",
"<X<X<X<X<X<X<X<X<X<X<X<X<X<X<X<X<X<X<X<X<X<X<X<X<X<X<X<X<X<Xa r 9 9 < 9 t = <X<X<X<X<X<X<X<X<X<X<X<X<X<X<X<X<X<X<X<X<X<X<X<X<X<X",
"<X<X<X<X<X<X<X<X<X<X<X<X<X<X<X<X<X<X<X<X<X<X<X<X<X<X<X<Xs +.! r <X<X@ r 7 , <X<X<X<X<X<X<X<X<X<X<X<X<X<X<X<X<X<X<X<X<X<X<X<X<X<X",
"<X<X<X<X<X<X<X<X<X<X<X<X<X<X<X<X<X<X<X<X<X<X<X<X<X<Xt S s - <X<X<X<XA ! 0 7 <X<X<X<X<X<X<X<X<X<X<X<X<X<X<X<X<X<X<X<X<X<X<X<X<X<X"
};
