/* XPM */
static char *result[] = {
/* columns rows colors chars-per-pixel */
"64 64 74 1 ",
"  c #717171",
". c #727272",
"X c gray45",
"o c #747474",
"O c gray46",
"+ c #767676",
"@ c #777777",
"# c #797979",
"$ c #7B7B7B",
"% c #7C7C7C",
"& c gray49",
"* c #7E7E7E",
"= c gray50",
"- c #808080",
"; c #818181",
": c gray51",
"> c #838383",
", c #848484",
"< c gray52",
"1 c #868686",
"2 c gray53",
"3 c #888888",
"4 c #898989",
"5 c gray54",
"6 c #8B8B8B",
"7 c gray55",
"8 c #8D8D8D",
"9 c #8E8E8E",
"0 c gray56",
"q c #909090",
"w c gray57",
"e c #929292",
"r c #939393",
"t c gray58",
"y c #959595",
"u c gray59",
"i c #979797",
"p c #989898",
"a c gray60",
"s c #9A9A9A",
"d c #9B9B9B",
"f c gray61",
"g c #9D9D9D",
"h c gray62",
"j c #9F9F9F",
"k c #A0A0A0",
"l c gray63",
"z c #A2A2A2",
"x c gray64",
"c c #A4A4A4",
"v c #A5A5A5",
"b c gray65",
"n c #A7A7A7",
"m c gray66",
"M c #AAAAAA",
"N c gray67",
"B c gray68",
"V c #AFAFAF",
"C c #B2B2B2",
"Z c gray70",
"A c #B4B4B4",
"S c gray71",
"D c #B6B6B6",
"F c #B7B7B7",
"G c gray72",
"H c #B9B9B9",
"J c gray73",
"K c #BBBBBB",
"L c #BCBCBC",
"P c gray74",
"I c gray",
"U c gray75",
"Y c #C0C0C0",
"T c #C1C1C1",
/* pixels */
"HTUUILKJHHHHHHHHHHJJJJJJJJJJJJHjVHHHHHHHHHHHHHHHHHJJJJJJJKLIUYTM",
"dSUPLJHGFFFFGGGGGGGGGGGGGGGGGGg;qBGGFFFFFFFFGGGGGGGGGGGGGHKLPUn7",
"aixlkhgfdddddddddddddddddddddd==99ddddddddddddddddddddddfgjkzc45",
"pylkhfdsssssssssssssssssssssss**88sssssssssssssssssssssssdghkz35",
"utkhfdsapppppppppppppaaaaaappp&&66pppppppppppppppppppaaaasdghk13",
"tehfNSAmiiiiiippppppppppmZZmpp%%66iinZZniiiiiippppppppppmASNgj,2",
"regdSap=iiiiiiiiiiiiiiiiCii*ii%%55iiCii*iiiiiiiiiiiiiiiiCpa;dg><",
"eqfsApi*iiiiiiiiiiiiiiiiCii*ii%%55iiCii*iiiiiiiiiiiiiiiiCip-sf:,",
"eqds6=*5iiiiiiiiiiiiiiii5==5ii%%55ii5==5iiiiiiiiiiiiiiii5==7sd;>",
"eqdsp65iiiiiiiiiiiiiiiiii55iii%%55iii55iiiiiiiiiiiiiiiiii56asd;>",
"eqdsppiiiiiiiiiiiiiiiiiiiiiiii%%55iiiiiiiiiiiiiiiiiiiiiiiipasd;>",
"eqdsppiiiiiiiiiiiiiiiiiiiiiiii%%55iiiiiiiiiiiiiiiiiiiiiiiipasf;>",
"eqdsppiiiiiiiiiiiiiiiiiiiiiiii%%55iiiiiiiiiiiiiiiiiiiiiiiipasf;>",
"eqdsapiiiiiiiiiiiiiiiiiiiiiiii%%55iiiiiiiiiiiiiiiiiiiiiiiipasf;>",
"eqdsapiiiiiiiiiiiiiiiiiiiiiiii%%55iiiiiiiiiiiiiiiiiiiiiiiipasf;,",
"eqdsapiiiiiiiiiiiiiiiiiiiiiiii%%55iiiiiiiiiiiiiiiiiiiiiiiipasf;,",
"eqdsapiiiiiiiiiiiiiiiiiiiiiiii%%55iiiiiiiiiiiiiiiiiiiiiiiipasf:,",
"eqfsapiiiiiiiiiiiiiiiiiiiiiiii%%55iiiiiiiiiiiiiiiiiiiiiiiipasf:,",
"eqfsapiiiiiiiiiiiiiiiiiiiiiiii%%55iiiiiiiiiiiiiiiiiiiiiiiipasf:,",
"eqfsapiiiiiiiiiiiiiiiiiiiiiiii%%55iiiiiiiiiiiiiiiiiiiiiiiipasf:,",
"eqfsapiiiiiiiiiiiiiiiiiiiiiiii%%55iiiiiiiiiiiiiiiiiiiiiiiipasf:,",
"ewfsapiiiiiiiiiiiiiiiiiiiiiiii%%55iiiiiiiiiiiiiiiiiiiiiiiipasf:,",
"ewfsapiiiiiiiiiiiiiiiiiiiiiiii%%55iiiiiiiiiiiiiiiiiiiiiiiipadf:,",
"ewfsapiiiiiiiiiiiiiiiiiiiiiiii%%55iiiiiiiiiiiiiiiiiiiiiiiipadf:,",
"ewfsapiiiiiiiiiiiiiiiiiiiiiiii%%55iiiiiiiiiiiiiiiiiiiiiiiipadf:,",
"ewfsapiiiiiiiiiiiiiiiiiiiiiiii%%55iiiiiiiiiiiiiiiiiiiiiiiipadf:,",
"ewfsapiiiiiiiiiiiiiiiiiiiiiiii%%55iiiiiiiiiiiiiiiiiiiiiiiipadf:,",
"ewfsapiiiiiiiiiiiiiiiiiiiiiiii%%55iiiiiiiiiiiiiiiiiiiiiiiipadf:,",
"ewfsapiiiiiiiiiiiiiiiiiiiiiiii%%55iiiiiiiiiiiiiiiiiiiiiiiipadf:,",
"ewfsapiiiiiiiiiiiiiiiiiiiiiiii%%55iiiiiiiiiiiiiiiiiiiiiiiipadf:,",
"ewfsapiiiiiiiiiiiiiiiiiiiiiiii%%55iiiiiiiiiiiiiiiiiiiiiiiipadf:,",
"ewfsapiiiiiiiiiiiiiiiiiiiiiiii%%55iiiiiiiiiiiiiiiiiiiiiiiipadf:,",
"ewfsapiiiiiiiiiiiiiiiiiiiiiiii%%55iiiiiiiiiiiiiiiiiiiiiiiipadf:,",
"ewfsapiiiiiiiiiiiiiiiiiiiiiiii%%55iiiiiiiiiiiiiiiiiiiiiiiipadf:,",
"ewfsapiiiiiiiiiiiiiiiiiiiiiiii%%55iiiiiiiiiiiiiiiiiiiiiiiipadf:,",
"ewfsapiiiiiiiiiiiiiiiiiiiiiiii%%55iiiiiiiiiiiiiiiiiiiiiiiipadf:,",
"ewfsapiiiiiiiiiiiiiiiiiiiiiiii%%55iiiiiiiiiiiiiiiiiiiiiiiipadf:,",
"ewfsapiiiiiiiiiiiiiiiiiiiiiiii%%55iiiiiiiiiiiiiiiiiiiiiiiipadf:,",
"ewfsapiiiiiiiiiiiiiiiiiiiiiiii%%55iiiiiiiiiiiiiiiiiiiiiiiipadf:,",
"ewfsapiiiiiiiiiiiiiiiiiiiiiiii%%55iiiiiiiiiiiiiiiiiiiiiiiipadf:,",
"ewfsapiiiiiiiiiiiiiiiiiiiiiiii%%55iiiiiiiiiiiiiiiiiiiiiiiipadf:,",
"ewfsapiiiiiiiiiiiiiiiiiiiiiiii%%55iiiiiiiiiiiiiiiiiiiiiiiipadf:,",
"ewfsapiiiiiiiiiiiiiiiiiiiiiiii%%55iiiiiiiiiiiiiiiiiiiiiiiipadf:,",
"ewfsapiiiiiiiiiiiiiiiiiiiiiiii%%55iiiiiiiiiiiiiiiiiiiiiiippadf:,",
"ewfdapiiiiiiiiiiiiiiiiiiiiiiii%%55iiiiiiiiiiiiiiiiiiiiiiippadg:,",
"ewfdapiiiiiiiiiiiiiiiiiiiiiiii%%55iiiiiiiiiiiiiiiiiiiiiiippsdg:<",
"ewfdapiiiiiiiiiiiiiiiiiiiiiiii%%55iiiiiiiiiiiiiiiiiiiiiiippsdg:<",
"ewfdapiiiiiiiiiiiiiiiiiiiiiiii%%55iiiiiiiiiiiiiiiiiiiiiiipasdg:<",
"rwfdapiiiiiiiiiiiiiiiiiiiiiiii%%55iiiiiiiiiiiiiiiiiiiiiiipasdg><",
"rwgdappiiiiiiiiiiiiiiiiiiiiiii%%55iiiiiiiiiiiiiiiiiiiiiiipasdg><",
"rwgdsppiiiiiiiiiiiiiiiiiiiiiii%%55iiiiiiiiiiiiiiiiiiiiiiipasdg><",
"regdsppiiiiiiiiiiiiiiiiiiiiiii%%55iiiiiiiiiiiiiiiiiiiiiiipasdg><",
"regdsapiiiiiiiiiiiiiiiiiiiiiii%%55iiiiiiiiiiiiiiiiiiiiiiipasdg><",
"regdsapiiiiiiiiiiiiiiiiiiiiiii%%55iiiiiiiiiiiiiiiiiiiiiiipasdg><",
"regdsapiiiiiiiiiiiiiiiiiiiiiii%%55iiiiiiiiiiiiiiiiiiiiiiipasfg><",
"regdsapiiiiiiiiiiiiiiiiiiiiiii%%55iiiiiiiiiiiiiiiiiiiiiiipasfg><",
"tehfMAZniiiiiiiiiiiiiiiinCCnii%%55iinCCniiiiiiiiiiiiiiiimAANfh,1",
"yrjgDsa=ppppppppppppppppZpp=pp%%66ppZpp=ppppppppppppppppAad:gj<2",
"utkjFds-aaaaaaaaaaaaaaaaAaa-aa&&77aaAaa-aaaaaaaaaaaaaaaaAdf>jl24",
"puzkw>:8ssssssssssssssss8;;8ss**88ss8;;8ssssssssssssssss9:>ekz35",
"spxzkwqfdddddddddffffffff00fff==99ddd99ddddddddddffffffffqekzc56",
"davxzkjhgggggggggggggggggggggg;;qqgggggggggggggggggggggghjlzcb57",
"gd#+oX.                       >>ee                       .oO+#79",
"j%$#@OoX.......................<r.......................XoO@#$%q"
};
