/* XPM */
static char *result[] = {
/* columns rows colors chars-per-pixel */
"64 64 45 1 ",
"  c #6C6C6C",
". c #6D6D6D",
"X c gray43",
"o c gray44",
"O c #717171",
"+ c #727272",
"@ c #747474",
"# c gray46",
"$ c #767676",
"% c #777777",
"& c #797979",
"* c #7B7B7B",
"= c #7C7C7C",
"- c gray49",
"; c #7E7E7E",
": c #8B8B8B",
"> c gray55",
", c #8D8D8D",
"< c #8E8E8E",
"1 c gray56",
"2 c #909090",
"3 c gray57",
"4 c #929292",
"5 c #939393",
"6 c gray58",
"7 c #959595",
"8 c gray59",
"9 c #989898",
"0 c gray60",
"q c #9A9A9A",
"w c #9B9B9B",
"e c gray61",
"r c #9D9D9D",
"t c #9F9F9F",
"y c gray63",
"u c gray64",
"i c #A4A4A4",
"p c #A5A5A5",
"a c gray65",
"s c #A7A7A7",
"d c gray66",
"f c #AAAAAA",
"g c #ACACAC",
"h c #B2B2B2",
"j c #BCBCBC",
/* pixels */
"jgfdsapiuuuuuuu7huuuuuuuuuuuuuu7huuuuuuuuuuuuuu7huuuuuuuipasdfgy",
"grwq98765555555+y55555555555555+y55555555555555+y55555556789qwr-",
"fw0986544444444Ot44444444444444Ot44444444444444Ot4444444456890w=",
"dq9865432222222or22222222222222or22222222222222or2222222345689q*",
"s98654311111111Xe11111111111111Xe11111111111111Xe11111111345689&",
"a865421<,,,,,,,.q,,,,,,,,,,,,,,.q,,,,,,,,,,,,,,.q,,,,,,,<124568%",
"p75431<,>>>>>>> 0>>>>>>>>>>>>>> 0>>>>>>>>>>>>>> 0>>>>>>>,<13457$",
"i6431<,>::::::: 9:::::::::::::: 9:::::::::::::: 9:::::::>,<1346#",
"u5421,>:::::::: 9:::::::::::::: 9:::::::::::::: 9::::::::>,1245@",
"u5421,>:::::::: 9:::::::::::::: 9:::::::::::::: 9::::::::>,1245@",
"u5421,>:::::::: 9:::::::::::::: 9:::::::::::::: 9::::::::>,1245@",
"u5421,>:::::::: 9:::::::::::::: 9:::::::::::::: 9::::::::>,1245@",
"u5421,>:::::::: 9:::::::::::::: 9:::::::::::::: 9::::::::>,1245@",
"u5421,>:::::::: 9:::::::::::::: 9:::::::::::::: 9::::::::>,1245@",
"u5421,>:::::::: 9:::::::::::::: 9:::::::::::::: 9::::::::>,1245@",
"7+OoX.          :               :               :         .XoO+@",
"hytreq099999999:d99999999999999:d99999999999999:d999999990qerty7",
"u5421,>:::::::: 9:::::::::::::: 9:::::::::::::: 9::::::::>,1245@",
"u5421,>:::::::: 9:::::::::::::: 9:::::::::::::: 9::::::::>,1245@",
"u5421,>:::::::: 9:::::::::::::: 9:::::::::::::: 9::::::::>,1245@",
"u5421,>:::::::: 9:::::::::::::: 9:::::::::::::: 9::::::::>,1245@",
"u5421,>:::::::: 9:::::::::::::: 9:::::::::::::: 9::::::::>,1245@",
"u5421,>:::::::: 9:::::::::::::: 9:::::::::::::: 9::::::::>,1245@",
"u5421,>:::::::: 9:::::::::::::: 9:::::::::::::: 9::::::::>,1245@",
"u5421,>:::::::: 9:::::::::::::: 9:::::::::::::: 9::::::::>,1245@",
"u5421,>:::::::: 9:::::::::::::: 9:::::::::::::: 9::::::::>,1245@",
"u5421,>:::::::: 9:::::::::::::: 9:::::::::::::: 9::::::::>,1245@",
"u5421,>:::::::: 9:::::::::::::: 9:::::::::::::: 9::::::::>,1245@",
"u5421,>:::::::: 9:::::::::::::: 9:::::::::::::: 9::::::::>,1245@",
"u5421,>:::::::: 9:::::::::::::: 9:::::::::::::: 9::::::::>,1245@",
"u5421,>:::::::: 9:::::::::::::: 9:::::::::::::: 9::::::::>,1245@",
"7+OoX.          :               :               :         .XoO+@",
"hytreq099999999:d99999999999999:d99999999999999:d999999990qerty7",
"u5421,>:::::::: 9:::::::::::::: 9:::::::::::::: 9::::::::>,1245@",
"u5421,>:::::::: 9:::::::::::::: 9:::::::::::::: 9::::::::>,1245@",
"u5421,>:::::::: 9:::::::::::::: 9:::::::::::::: 9::::::::>,1245@",
"u5421,>:::::::: 9:::::::::::::: 9:::::::::::::: 9::::::::>,1245@",
"u5421,>:::::::: 9:::::::::::::: 9:::::::::::::: 9::::::::>,1245@",
"u5421,>:::::::: 9:::::::::::::: 9:::::::::::::: 9::::::::>,1245@",
"u5421,>:::::::: 9:::::::::::::: 9:::::::::::::: 9::::::::>,1245@",
"u5421,>:::::::: 9:::::::::::::: 9:::::::::::::: 9::::::::>,1245@",
"u5421,>:::::::: 9:::::::::::::: 9:::::::::::::: 9::::::::>,1245@",
"u5421,>:::::::: 9:::::::::::::: 9:::::::::::::: 9::::::::>,1245@",
"u5421,>:::::::: 9:::::::::::::: 9:::::::::::::: 9::::::::>,1245@",
"u5421,>:::::::: 9:::::::::::::: 9:::::::::::::: 9::::::::>,1245@",
"u5421,>:::::::: 9:::::::::::::: 9:::::::::::::: 9::::::::>,1245@",
"u5421,>:::::::: 9:::::::::::::: 9:::::::::::::: 9::::::::>,1245@",
"7+OoX.          :               :               :         .XoO+@",
"hytreq099999999:d99999999999999:d99999999999999:d999999990qerty7",
"u5421,>:::::::: 9:::::::::::::: 9:::::::::::::: 9::::::::>,1245@",
"u5421,>:::::::: 9:::::::::::::: 9:::::::::::::: 9::::::::>,1245@",
"u5421,>:::::::: 9:::::::::::::: 9:::::::::::::: 9::::::::>,1245@",
"u5421,>:::::::: 9:::::::::::::: 9:::::::::::::: 9::::::::>,1245@",
"u5421,>:::::::: 9:::::::::::::: 9:::::::::::::: 9::::::::>,1245@",
"u5421,>:::::::: 9:::::::::::::: 9:::::::::::::: 9::::::::>,1245@",
"u5421,>:::::::: 9:::::::::::::: 9:::::::::::::: 9::::::::>,1245@",
"i6431<,>::::::: 9:::::::::::::: 9:::::::::::::: 9:::::::>,<1346#",
"p75431<,>>>>>>> 0>>>>>>>>>>>>>> 0>>>>>>>>>>>>>> 0>>>>>>>,<13457$",
"a865421<,,,,,,,.q,,,,,,,,,,,,,,.q,,,,,,,,,,,,,,.q,,,,,,,<124568%",
"s98654311111111Xe11111111111111Xe11111111111111Xe11111111345689&",
"dq9865432222222or22222222222222or22222222222222or2222222345689q*",
"fw0986544444444Ot44444444444444Ot44444444444444Ot4444444456890w=",
"grwq98765555555+y55555555555555+y55555555555555+y55555556789qwr-",
"y-=*&%$#@@@@@@@@7@@@@@@@@@@@@@@@7@@@@@@@@@@@@@@@7@@@@@@@#$%&*=-;"
};
