/* XPM */
static char *result[] = {
/* columns rows colors chars-per-pixel */
"64 64 59 1 ",
"  c #6D6D6D",
". c gray43",
"X c #6F6F6F",
"o c gray44",
"O c #717171",
"+ c #727272",
"@ c gray45",
"# c #747474",
"$ c gray46",
"% c #767676",
"& c #777777",
"* c gray47",
"= c #797979",
"- c gray48",
"; c #7B7B7B",
": c #7C7C7C",
"> c gray49",
", c #7E7E7E",
"< c gray50",
"1 c #808080",
"2 c #818181",
"3 c gray51",
"4 c #838383",
"5 c #848484",
"6 c gray52",
"7 c #868686",
"8 c gray53",
"9 c #888888",
"0 c #898989",
"q c gray54",
"w c #8B8B8B",
"e c gray55",
"r c #8D8D8D",
"t c #8E8E8E",
"y c gray56",
"u c #909090",
"i c gray57",
"p c #929292",
"a c #939393",
"s c gray58",
"d c #959595",
"f c gray59",
"g c #979797",
"h c #989898",
"j c gray60",
"k c #9A9A9A",
"l c #9B9B9B",
"z c gray61",
"x c #9D9D9D",
"c c gray62",
"v c #9F9F9F",
"b c #A0A0A0",
"n c gray63",
"m c #A2A2A2",
"M c gray64",
"N c #A4A4A4",
"B c #A5A5A5",
"V c gray65",
"C c #A7A7A7",
/* pixels */
"CVNmnvcxzzzzxxxxxxxxxxxccxxxxxx9xxxxzzzzzzzzxxxxxxxxxxxccbnmNBCa",
"VNckhgdsaasssssssssssddddddsss7#lkgsssaaaasssssssssssddddghklxy<",
"Nmkapiutttttttttyyyyyyyyyyyyy8++jhptttttttttttttyyyyyyyyuipadu:,",
"mbhpiytreeeeeerrrrrrrrrrrrrrr3++ggieeeeeeeeeeerrrrrrrrrrtyipaq::",
"nvfiytewqwwwwwwwwwwwweeeeeeww2ooffywwwwqqwwwwwwwwwwwweeeetyip0-:",
"vxdytewq000000qqqqqqqqqqqqqqq<XXddt00000000000qqqqqqqqqqwetyi9=;",
"czatewq9999999999000000000000,..aar999999999999990000000qwety7*-",
"xlprwq98888888889999999999999>. ppe8888888888888999999999qwet6$*",
"zkpeq098888888888888888998888>  ppw88888888888888888888990qer6$*",
"zkpew098888888888888889999888>  ppw88888888888888888889990qet6$*",
"zkpew098888888888888899999988>  ppw88888888888888888899990qet6$*",
"zkpew098888888888888999999998>  ppw88888888888888888999990wet6$*",
"zkpew098888888888888999999998>  ppe88888888888888888999990wet6$*",
"xkpew098888888888889999999999>  ppe88888888888888889999990wet6$*",
"xkpew098888888888899999999999>  ppe88888888888888899999990wet6$*",
"xkprwq98888888888999999999999>  ppe8888888888888899999999qwet6$*",
"xlprwq98888888889999999999999>. ppe8888888888888999999990qwet6$*",
"xlprwq98888888899999999999999>..ape8888888888889999999990qwet6$*",
"xlprwq09888888899999999999999>..aae8888888888889999999990qwrt6$=",
"xlprwq09888888999999999999999>..aae8888888888899999999990qwrt6&=",
"xlprwq09888889999999999999999>..aae8888888888999999999990qwrt6&=",
"xlprwq09888899999999999999999>..aae9888888889999999999990qwrt7&=",
"xlprwq09888999999999999999999>..aae9988888899999999999990qwry7&=",
"xlprwq09889999999999999999999,..aae9998888999999999999990qwry7&=",
"xlprwq09889999999999999999999,..aae9998888999999999999990qwry7&=",
"xlprwq09888999999999999999999>..aae9988888899999999999990qwry7&=",
"xlprwq09888899999999999999999>..aae9888888889999999999990qwrt7&=",
"xlprwq09888889999999999999999>..aae8888888888999999999990qwrt6&=",
"xlprwq09888888999999999999999>..aae8888888888899999999990qwrt6&=",
"xlu31<,>>>>>>>>>>>>>>>,,,,>>>%..aaq>>>>>>>>>>>>>>>>>>>,,,<134,$=",
"x7++oX.         ................a>              .........XoO+#$*",
"9#++oX.          .............. >                ........XoO+#$*",
"xkhgfdapppppppppaaaaaaaaaaaaaaa>ppppppppppppppppaaaaaaaasdffhkz0",
"xkdiytrewwwweeeeeeeeeeeeeeeeee> pptewwwwwwwweeeeeeeeeeeertyipa8*",
"xkpew0988888888888899999999992  ppe88888888888888889999990wet9$*",
"zkpew098888888888888999999998>  ppe88888888888888888999990wet6$*",
"zkpew098888888888888999999998>  ppw88888888888888888999990wet6$*",
"zkpew098888888888888899999988>  ppw88888888888888888899990qet6$*",
"zkpew098888888888888889999888>  ppw88888888888888888889990qet6$*",
"zkpeq098888888888888888998888>  ppw88888888888888888888990qer6$*",
"zkpeq098888888888888888998888>  ppw88888888888888888888990qer6$*",
"zkpew098888888888888889999888>  ppw88888888888888888889990qet6$*",
"zkpew098888888888888899999988>  ppw88888888888888888899990qet6$*",
"zkpew098888888888888999999998>  ppw88888888888888888999990wet6$*",
"zkpew098888888888888999999998>  ppe88888888888888888999990wet6$*",
"xkpew098888888888889999999999>  ppe88888888888888889999990wet6$*",
"xkpew098888888888899999999999>  ppe88888888888888899999990wet6$*",
"xkprwq98888888888999999999999>  ppe8888888888888899999999qwet6$*",
"xlprwq98888888889999999999999>. ppe8888888888888999999990qwet6$*",
"xlprwq98888888899999999999999>..ape8888888888889999999990qwet6$*",
"xlprwq09888888899999999999999>..aae8888888888889999999990qwrt6$=",
"xlprwq09888888999999999999999>..aae8888888888899999999990qwrt6&=",
"xlprwq09888889999999999999999>..aae8888888888999999999990qwrt6&=",
"xlprwq09888899999999999999999>..aae9888888889999999999990qwrt7&=",
"xlprwq09888999999999999999999>..aae9988888899999999999990qwry7&=",
"xlprwq09889999999999999999999,..aae9998888999999999999990qwry7&=",
"czatew09999999999900000000000,..aar999999999999999000000qwety7*=",
"vxsyrew000000000qqqqqqqqqqqqq<XXdst0000000000000qqqqqqqqweryi9=;",
"nvfiyrewqqqqqwwwwwwwwwwwwwwww1ooffyqqqqqqqqqqwwwwwwwwwwweryup0-:",
"mbgpiyreeeeeeeeeeeerrrrrrrrrr3OOffueeeeeeeeeeeeeeeerrrrrtyupaq;:",
"Mmjapiytrrrrttttttttttyyyyttt4++hhptrrrrrrrrttttttttttyyyipasw:>",
"BMjq0976555666666666667777666>@@kki665555556666666666677790qw7><",
"Cy:;-=&$$$$$$$$$$$$$&&&&&&&&$$$$z8$$$$$$$$$$$$$$$$$$&&&&*=-;:><1",
"p<,::;=************==========***0******************======;::><13"
};
