/* XPM */
static char *result[] = {
/* columns rows colors chars-per-pixel */
"64 64 56 1 ",
"  c gray46",
". c #7C7C7C",
"X c #858585",
"o c #848A89",
"O c #8C8D8D",
"+ c #9C858B",
"@ c #9E8B8F",
"# c #9D8D91",
"$ c #8C9191",
"% c #919292",
"& c #9A9A9A",
"* c #A1878E",
"= c #A0898F",
"- c #A28D92",
"; c #A69498",
": c #AC9A9E",
"> c #9DA09E",
", c #9EA2A1",
"< c #A3A4A4",
"1 c #ABABAB",
"2 c #B7ADAE",
"3 c #B9ACAF",
"4 c #B9AEB1",
"5 c #B5B5B5",
"6 c #B9B0B2",
"7 c #BBBBBB",
"8 c #FE87A6",
"9 c #FE89A6",
"0 c #F58EA8",
"q c #FD8DA9",
"w c #F293AB",
"e c #FF93AE",
"r c #E7A4B5",
"t c #E5AAB9",
"y c #E3B0BD",
"u c #DDBFC6",
"i c #E1B4C0",
"p c #C2C2C2",
"a c #CDCDCD",
"s c #DAC9CE",
"d c #D5D4D4",
"f c #D8D1D3",
"g c #DCDCDC",
"h c #D7E1DE",
"j c #DDE0DF",
"k c #D6E5E1",
"l c #DDE2E1",
"z c #DFE8E7",
"x c #E3E3E3",
"c c #E8E7E6",
"v c #E0E9E7",
"b c #E8E8E7",
"n c #EAEAEA",
"m c #F3F3F3",
"M c #FAFAFA",
"N c None",
/* pixels */
"NNNNNNNNNNNNNNNNNNNNNNNNNNNNNNNNNNNNNNNNNNNNNNNNNNNNNNNNNNNNNNNN",
"NNNNNNNNNNNNNNNNNNNNNNNNNNNNNNNNNNNNNNNNNNNNNNNNNNNNNNNNNNNNNNNN",
"NNNNNNNNNNNNNNNNNNNNNNNNNNNNNNNNNNNNNNNNNNNNNNNNNNNNNNNNNNNNNNNN",
"NNNNNNNNNNNNNNNNNNNNNNNNNNNNNNNNNNNNNNNNNNNNNNNNNNNNNNNNNNNNNNNN",
"NNNNNNNNNNNNNNNNNNNNNNNNNNNNNNNNNNNNNNNNNNNNNNNNNNNNNNNNNNNNNNNN",
"NNNNNNNNNNNNNNNNNNNNNNNNNNNNNNNNNNNNNNNNNNNNNNNNNNNNNNNNNNNNNNNN",
"NNNNNNNNNNNNNNNNNNNNNNNNNNNNNNNNNNNNNNNNNNNNNNNNNNNNNNNNNNNNNNNN",
"NNNNNNNNNNNNNNNNNNNNNNNNNNNNNNNNNNNNNNNNNNNNNNNNNNNNNNNNNNNNNNNN",
"NNNNNNNNNNNNNNNNNNNNNNNNNNNNNNNNNNNNNNNNNNNNNNNNNNNNNNNNNNNNNNNN",
"NNNNNNNNNNNNNNNNNNNNNNNNNNNNNNNNNNNNNNNNNNNNNNNNNNNNNNNNNNNNNNNN",
"NNNNNNNNNNNNNNNNNNNNNNNNNNNNNNNNNNNNNNNNNNNNNNNNNNNNNNNNNNNNNNNN",
"NNNNNNNNNNNNNNNNNNNNNNNNNNNNNNNNNNNNNNNNNNNNNNNNNNNNNNNNNNNNNNNN",
"NNNNNNNNNNNNNNNNNNNNNNNNNNNNNNNNNNNNNNNNNNNNNNNNNNNNNNNNNNNNNNNN",
"NNNNNNNNNNNNNNNNNNNNNNNNNNNNNNNNNNNNNNNNNNNNNNNNNNNNNNNNNNNNNNNN",
"NNNNNNNNNNNNNNNNNNNNNNNNNNNNNNNNNNNNNNNNNNNNNNNNNNNNNNNNNNNNNNNN",
"NNNNNNNNNNNNNNNNNNNNNNNNNNNNNNNNNNNNNNNNNNNNNNNNNNNNNNNNNNNNNNNN",
"NNNNNNNNNNNNNNNNNNNNNNNNNNNNNNNNNNNNNNNNNNNNNNNNNNNNNNNNNNNNNNNN",
"NNNNNNNNNNNNNNNNNNNNNNNNNNNNNNNNNNNNNNNNNNNNNNNNNNNNNNNNNNNNNNNN",
"NNNNNNNNNNNNNNNNNNNNNNNNNNNNNNNNNNNNNNNNNNNNNNNNNNNNNNNNNNNNNNNN",
"NNNNNNNNNNNNNNNNNNNNNNNNNNNNNNNNNNNNNNNNNNNNNNNNNNNNNNNNNNNNNNNN",
"NNNNNNNNNNNNNNNNNNNNNNNNNNNNNNNNNNNNNNNNNNNNNNNNNNNNNNNNNNNNNNNN",
"NNNNNNNNNNNNNNNNNNNNNNNNNNNNNNNNNNNNNNNNNNNNNNNNNNNNNNNNNNNNNNNN",
"NNNNNNNNNNNNNNNNNNNNNNNNNNNNNNNNNNNNNNNNNNNNNNNNNNNNNNNNNNNNNNNN",
"NNNNNNNNNNNNNNNNNNNNNNNNNNNNNNNNNNNNNNNNNNNNNNNNNNNNNNNNNNNNNNNN",
"NNNNNNNNNNNNNNNNNNNNNNNNNNNNNNNNNNNNNNNNNNNNNNNNNNNNNNNNNNNNNNNN",
"NNNNNNNNNNNNNNNNNNNNNNNNNNNNNNNNNNNNNNNNNNNNNNNNNNNNNNNNNNNNNNNN",
"NNNNNNNNNNNNNNNNNNNNNNNNNNNNNNNNNNNNNNNNNNNNNNNNNNNNNNNNNNNNNNNN",
"NNNNNNNNNNNNNNNNNNNNNNNNNNNNNNNNNNNNNNNNNNNNNNNNNNNNNNNNNNNNNNNN",
"NNNNNNNNNNNNNNNNNNNNNNNNNNNNNNNNNNNNNNNNNNNNNNNNNNNNNNNNNNNNNNNN",
"NNNNNNNNNNNNNNNNNNNNNNNNNNNNNNNNNNNNNNNNNNNNNNNNNNNNNNNNNNNNNNNN",
"NNNNNNNNNNNNNNNNgnnnnnnnxNNNNNNNNNNNNNNnnnnnnnm1NNNNNNNNNNNNNNNN",
"NNNNNNNNNNNNNNNaxxnnnxnnxaNNNNNNNNNNNNxnnnnxnnna%NNNNNNNNNNNNNNN",
"NNNNNNNNNNNNNNNncfdggdgga77 7njjxgn7.nnddgdggdgu7NNNNNNNNNNNNNNN",
"NNNNNNNNNNNNNNNncggggggjd7p%uxggggx7<Mndjggggggp5NNNNNNNNNNNNNNN",
"NNNNNNNNNNNNNNNmcdgggggga77%7vxjxgnp%Mnggggggggp5NNNNNNNNNNNNNNN",
"NNNNNNNNNNNNNNNncggggggld7pO5gappdg1&Mndjggggjgp5NNNNNNNNNNNNNNN",
"NNNNNNNNNNNNNNNnxdgggggjp5p%O&$##%&O&mgagggggjgp5NNNNNNNNNNNNNNN",
"NNNNNNNNNNNNNNNnbggggjg77p<%OO$@#oOO%7xxfdgggggp5NNNNNNNNNNNNNNN",
"NNNNNNNNNNNNNNNmbgljkj777&O%%%$--$%%OX<xmggjjxjp7NNNNNNNNNNNNNNN",
"NNNNNNNNNNNNNNNcxadfdp7u%oO%%Oo++oO%%$o;mMdafaap5NNNNNNNNNNNNNNN",
"NNNNNNNNNNNNNNNNp75755p&O%O%X%,32,Oo%O%X<Ma57777NNNNNNNNNNNNNNNN",
"NNNNNNNNNNNNNNNNN7pppp,oO%Oo1fxxlxf<X%%%Xppupp7NNNNNNNNNNNNNNNNN",
"NNNNNNNNNNNNNNNNN,O$%%$$%%o5czlgglbn5X%%$O$$O%.NNNNNNNNNNNNNNNNN",
"NNNNNNNNNNNNNNNNNpu75O%$%X1bjfshksflc<O%$$$7pp1NNNNNNNNNNNNNNNNN",
"NNNNNNNNNNNNNNNNNcxng&O%O%dzu00ttqwuvdOO%X1nxndNNNNNNNNNNNNNNNNN",
"NNNNNNNNNNNNNNNNNjgja$o$o,xg0qeeqeqwgx>o$o<cgxaNNNNNNNNNNNNNNNNN",
"NNNNNNNNNNNNNNNNNjglp#*-+4vdweeeeeewgz2+-*:jgxaNNNNNNNNNNNNNNNNN",
"NNNNNNNNNNNNNNNNNjgxp--;*4xli8eeee8ykx3+;*:jggaNNNNNNNNNNNNNNNNN",
"NNNNNNNNNNNNNNNNNxgxa%o%o,xlgr8ee9tgjx,o$o<xglaNNNNNNNNNNNNNNNNN",
"NNNNNNNNNNNNNNNNNnxnd%O%OOfjlht99tkjxdOO%O1bxbgNNNNNNNNNNNNNNNNN",
"NNNNNNNNNNNNNNNNN5771O%%%o1nglkrrkgjb1X%%OO1pp1NNNNNNNNNNNNNNNNN",
"NNNNNNNNNNNNNNNNN.&%%&O%%%o7bljgglxb7X%%OO&%%%.NNNNNNNNNNNNNNNNN",
"NNNNNNNNNNNNNNNNNxMmmm6X%%OX1dxxzxg<XO%OXpMmmMgNNNNNNNNNNNNNNNNN",
"NNNNNNNNNNNNNNNNxmmmmxx>X%%%o%<46<OO%%%X<MnnmmmaNNNNNNNNNNNNNNNN",
"NNNNNNNNNNNNNNNgndgddfxj#X%%%OX++oO%%%X&mMgddggp7NNNNNNNNNNNNNNN",
"NNNNNNNNNNNNNNNxndgglddnn<XO%%$-#O%%OX<nMgggggg77NNNNNNNNNNNNNNN",
"NNNNNNNNNNNNNNNxbgggggggMM7OOOo++oOOO7MMxfggjjgp7NNNNNNNNNNNNNNN",
"NNNNNNNNNNNNNNNxbdggggjdgda%O1<;;,1%&mngfggggjgp5NNNNNNNNNNNNNNN",
"NNNNNNNNNNNNNNNxbggggggja57O7nxglxb7%Mndxgggggg77NNNNNNNNNNNNNNN",
"NNNNNNNNNNNNNNNgbgggjggld5pOpxggggx7%Mndgggggggu7NNNNNNNNNNNNNNN",
"NNNNNNNNNNNNNNNxnghjjjgxd7p%pnlgjjbp&Mngjjgggggp5NNNNNNNNNNNNNNN",
"NNNNNNNNNNNNNNNnndgggggxd57.5faaaad5 xmdggjgxxgp7NNNNNNNNNNNNNNN",
"NNNNNNNNNNNNNNN1dpppppppp7NNNNNNNNNNNNapppppppp71NNNNNNNNNNNNNNN",
"NNNNNNNNNNNNNNNN&u7577577NNNNNNNNNNNNNN7777577p%NNNNNNNNNNNNNNNN"
};
