/* XPM */
static char *result[] = {
/* columns rows colors chars-per-pixel */
"64 64 52 1 ",
"  c #6D6D6D",
". c gray43",
"X c #6F6F6F",
"o c gray44",
"O c #717171",
"+ c #727272",
"@ c gray45",
"# c #747474",
"$ c gray46",
"% c #777777",
"& c gray47",
"* c #797979",
"= c gray48",
"- c #7B7B7B",
"; c #7C7C7C",
": c gray49",
"> c #7E7E7E",
", c gray50",
"< c #808080",
"1 c #818181",
"2 c gray51",
"3 c #838383",
"4 c #848484",
"5 c #868686",
"6 c gray53",
"7 c #888888",
"8 c #898989",
"9 c gray54",
"0 c #8B8B8B",
"q c gray55",
"w c gray57",
"e c #929292",
"r c #939393",
"t c gray58",
"y c #959595",
"u c gray59",
"i c #979797",
"p c #989898",
"a c gray60",
"s c #9A9A9A",
"d c #9B9B9B",
"f c gray61",
"g c #9D9D9D",
"h c gray62",
"j c #9F9F9F",
"k c #A0A0A0",
"l c gray63",
"z c #A2A2A2",
"x c gray64",
"c c #A4A4A4",
"v c gray65",
"b c #A7A7A7",
/* pixels */
"vcxlkhgdddddffffgggghhhhhhhhggg%ffffddddddddffffgggghhhhjkzxcvb2",
"cxljgfsapaaaassssddddffffffddd##sssaaaappaaaassssddddfffghklxc><",
"xljgdspiuiiiippppaaaassssssaa@++pppiiiiuuiiiippppaaaasssdfhjl;:,",
"ljgdapuuuuuuuuuuiiiipppppppp+++Ouuuuuuuuuuuuuuuuiiiippppasfg*-;:",
"kgdapuuyttyyyyyuuuuuuuuiiuuOOOoouyyyyyttttyyyyyuuuuuuuuiias$&*-;",
"hfspuutrrrrtttttyyyyyuuuuuoooXXXtttttrrrrrrtttttyyyyyuuuui+#$&=;",
"gspuutreeeeerrrrrtttttyyyXXXX...rrrreeeeeeeerrrrrtttttyyuO++#%&=",
"daiuyrewwwweeeeeerrrrrtt......  eeeeewwwwwweeeeeerrrrrttXoO+@#%*",
"dpuutrew5555666666667777....    eeewwwww5555666666667777XXO++#%*",
"daiutrew5556666666677777.....   eeeewwww5556666666677777XoO+@#%*",
"daiuyrew5566666666777778......  eeeeewww5566666666777778XoO+@#%*",
"daiuytee5666666667777788X...... eeeeeeww5666666667777788XoO+@$%=",
"faiuytre6666666677777888X.......reeeeeew6666666677777888XoO+@$&=",
"fspuytre6666666777778888XX......rreeeeee6666666777778888Xo++#$&=",
"fspuytre6666667777788889XXX.....rrreeeee6666667777788889oO++#$&=",
"fspuutre6666677777888899XXXX....rrrreeee6666677777888899oO+@#%&=",
"gspiuyre6666777778888999XXXXX...rrrrreee6666777778888999oO+@#%*-",
"gdaiuytr6667777788889999oXXXXX..trrrrree6667777788889999oO+@$%*-",
"gdaiuytr6677777888899990ooXXXXX.ttrrrrre6677777888899990O++@$%*-",
"gdaiuytr6777778888999900oooXXXXXtttrrrrr6777778888999900O++#$&=-",
"hdapuytr7777788889999000ooooXXXXttttrrrr7777788889999000O++#$&=;",
"hfspuutr777788889999000qOooooXXXtttttrrr777788889999000qO+@#%&=;",
"hfspuuyt77788889999000qqOOooooXXytttttrr77788889999000qq++@#%*=;",
"hfspiuyt7788889999000qqqOOOooooXyytttttr7788889999000qqq++@$%*-;",
"hfspiuy....XXXXXXooooOOOOOOooooXyyttttt....XXXXXXooooOOO++@$%*-;",
"hfspuuX......XXXXXooooOOOOooooXXyttttt.......XXXXXooooOO++@#%*=;",
"hfspuoX.......XXXXXooooOOooooXXXttttt.........XXXXXooooOO+@#%&=;",
"hdapOoX........XXXXXooooooooXXXXtttt...........XXXXXooooO++#$&=;",
"gda+OoX. .......XXXXXooooooXXXXXttt....  .......XXXXXoooO++#$&=-",
"gd@+OX..  .......XXXXXooooXXXXX.tt....    .......XXXXXooO++@$%*-",
"g#++oX.    .......XXXXXooXXXXX..t....      .......XXXXXooO+@$%*-",
"%#+OoX.     .......XXXXXXXXXX.......        .......XXXXXoO+@#%*-",
"fspuutreeeeerrrrrtttttyyyyttttt.rrrreeeeeeeerrrrrtttttyyuuiadfh=",
"fspuytreeeeeerrrrrtttttyyttttt..rrreeeeeeeeeerrrrrtttttyyuiasf&=",
"fspuytreeeeeeerrrrrtttttttttt...rreeeeeeeeeeeerrrrrtttttyuips$&=",
"faiuytreweeeeeerrrrrtttttttt....reeeeeewweeeeeerrrrrttttyuup@$&=",
"daiuyteewweeeeeerrrrrtttttt.... eeeeeewwwweeeeeerrrrrtttyuu+@$%=",
"daiuyrewwwweeeeeerrrrrtttt....  eeeeewwwwwweeeeeerrrrrtttuO+@#%*",
"daiutrewwwwweeeeeerrrrrtt....   eeeewwwwwwwweeeeeerrrrrttoO+@#%*",
"dpuutrewwwwwweeeeeerrrrr....    eeewwwwwwwwwweeeeeerrrrrXXO++#%*",
"dpuutrew5555666666667777....    eeewwwww5555666666667777XXO++#%*",
"daiutrew5556666666677777.....   eeeewwww5556666666677777XoO+@#%*",
"daiuyrew5566666666777778......  eeeeewww5566666666777778XoO+@#%*",
"daiuytee5666666667777788X...... eeeeeeww5666666667777788XoO+@$%=",
"faiuytre6666666677777888X.......reeeeeew6666666677777888XoO+@$&=",
"fspuytre6666666777778888XX......rreeeeee6666666777778888Xo++#$&=",
"fspuytre6666667777788889XXX.....rrreeeee6666667777788889oO++#$&=",
"fspuutre6666677777888899XXXX....rrrreeee6666677777888899oO+@#%&=",
"gspiuyre6666777778888999XXXXX...rrrrreee6666777778888999oO+@#%*-",
"gdaiuytr6667777788889999oXXXXX..trrrrree6667777788889999oO+@$%*-",
"gdaiuytr6677777888899990ooXXXXX.ttrrrrre6677777888899990O++@$%*-",
"gdaiuytr6777778888999900oooXXXXXtttrrrrr6777778888999900O++#$&=-",
"hdapuytr7777788889999000ooooXXXXttttrrrr7777788889999000O++#$&=;",
"hfspuutr777788889999000qOooooXXXtttttrrr777788889999000qO+@#%&=;",
"hfspuuyt77788889999000qqOOooooXXytttttrr77788889999000qq++@#%*=;",
"hfspiuyt7788889999000qqqOOOooooXyytttttr7788889999000qqq++@$%*-;",
"jgdaiuuXXXXXXXooooOOOO++++OOOOoouyyyyttXXXXXXXooooOOOO+++@#$&=-;",
"khfsaiOoXoooooOOOO++++++++++++OOuuuuuuoXXoooooOOOO++++++@#$&*-;:",
"zkhfs++OOOOOO++++++++@@@@@@+++++iiiuuOOOOOOOO++++++++@@@#$&*=;:>",
"xljg$#+++++++++@@@@####$$####@@@aapp+++++++++++@@@@####$$&*=;;>,",
"cxl*&$#@+@@@@####$$$$%%%%%%$$$$#dss@@@@++@@@@####$$$$%%%&*=;;:,1",
"vc;-*&%####$$$$%%%%&&&****&&&%%%ff$$$######$$$$%%%%&&&**=-;;:,<2",
"b>:;-=&%%%%%&&&&***====--====***h&&&%%%%%%%%&&&&***====--;:>,<23",
"2<,:;;=****=====----;;;;;;;;----=====******=====----;;;;;:>,1234"
};
