/* XPM */
static char *result[] = {
/* columns rows colors chars-per-pixel */
"64 64 211 2 ",
"   c black",
".  c #010101",
"X  c #020101",
"o  c #030200",
"O  c #010202",
"+  c #020202",
"@  c #030202",
"#  c #050404",
"$  c #080707",
"%  c #06080A",
"&  c #0A0808",
"*  c #0A0908",
"=  c #0B0A09",
"-  c #080B0E",
";  c #0F0D0C",
":  c #130A00",
">  c #1B0F00",
",  c #120D0B",
"<  c #16110F",
"1  c #090D11",
"2  c #0F151B",
"3  c #161312",
"4  c #191513",
"5  c #1E1613",
"6  c #1A1715",
"7  c #1C1817",
"8  c #1D1917",
"9  c #1E1A18",
"0  c #241400",
"q  c #291600",
"w  c #2A1700",
"e  c #2B1700",
"r  c #331C00",
"t  c #351D00",
"y  c #221A17",
"u  c #231A17",
"i  c #201C1A",
"p  c #251C18",
"a  c #261C19",
"s  c #241D1A",
"d  c #231E1C",
"f  c #241F1D",
"g  c #291F1B",
"h  c #2A1F1C",
"j  c #3E2200",
"k  c #25201E",
"l  c #26211E",
"z  c #27221F",
"x  c #2D221E",
"c  c #172029",
"v  c #18212A",
"b  c #1C2732",
"n  c #282220",
"m  c #292321",
"M  c #2D2320",
"N  c #2A2421",
"B  c #2B2421",
"V  c #2B2522",
"C  c #2C2623",
"Z  c #2E2724",
"A  c #302420",
"S  c #342723",
"D  c #342823",
"F  c #312A27",
"G  c #362924",
"H  c #392B26",
"J  c #332C28",
"K  c #362E2B",
"L  c #372F2B",
"P  c #39312D",
"I  c #3A322E",
"U  c #3B322F",
"Y  c #3C332F",
"T  c #202C38",
"R  c #202D3A",
"E  c #212E3B",
"W  c #3D3430",
"Q  c #3E3531",
"!  c #562F00",
"~  c #713E00",
"^  c #733F00",
"/  c #40312B",
"(  c #43332D",
")  c #45352F",
"_  c #403732",
"`  c #443A36",
"'  c #4D3B35",
"]  c #483D39",
"[  c #4B403B",
"{  c #4C413D",
"}  c #524039",
"|  c #273646",
" . c #304255",
".. c #324559",
"X. c #33465B",
"o. c #34485D",
"O. c #35495E",
"+. c #504540",
"@. c #534742",
"#. c #5B4740",
"$. c #564A44",
"%. c #5D504A",
"&. c #5E514B",
"*. c #634D46",
"=. c #61534D",
"-. c #63554E",
";. c #69524A",
":. c #6B544B",
">. c #6C554C",
",. c #6D564D",
"<. c #6E574E",
"1. c #6F574E",
"2. c #665751",
"3. c #675852",
"4. c #715950",
"5. c #706059",
"6. c #716159",
"7. c #72615A",
"8. c #74635C",
"9. c #75645C",
"0. c #77665E",
"q. c #7D6B63",
"w. c #7E6C64",
"e. c #945100",
"r. c #955200",
"t. c #9D5600",
"y. c #C36B00",
"u. c #CE7100",
"i. c #E17B00",
"p. c #E47C00",
"a. c #806E66",
"s. c #8A6F65",
"d. c #827067",
"f. c #84726A",
"g. c #85726A",
"h. c #86736A",
"j. c #8E7368",
"k. c #8F7368",
"l. c #8A766D",
"z. c #90746A",
"x. c #91756A",
"c. c #937E74",
"v. c #947F75",
"b. c #9A7D72",
"n. c #F68600",
"m. c #F98800",
"M. c #958076",
"N. c #968077",
"B. c #978178",
"V. c #9C857B",
"C. c #9D867C",
"Z. c #9E877D",
"A. c #A08277",
"S. c #AC8C80",
"D. c #A99086",
"F. c #B0978C",
"G. c #B49A8F",
"H. c #BC9C8E",
"J. c #B69C90",
"K. c #B79D91",
"L. c #BE9E90",
"P. c #BF9E91",
"I. c #C09F92",
"U. c #C1A193",
"Y. c #C3A293",
"T. c #C3A395",
"R. c #C3A79B",
"E. c #C7A698",
"W. c #C4A89B",
"Q. c #C5A99C",
"!. c #C6AA9D",
"~. c #CBAA9C",
"^. c #C9AC9F",
"/. c #D1AF9F",
"(. c #D4B2A2",
"). c #D1B3A5",
"_. c #D2B4A6",
"`. c #D3B4A7",
"'. c #DAB7A7",
"]. c #D4B5A8",
"[. c #DCB8A9",
"{. c #DBBBAD",
"}. c #DEBEAF",
"|. c #DFBEB0",
" X c #E0BCAD",
".X c #E3C1B1",
"XX c #E1C0B2",
"oX c #E2C2B3",
"OX c #E4C1B2",
"+X c #E4C4B5",
"@X c #E5C4B6",
"#X c #EAC9BA",
"$X c #EBC9BA",
"%X c #EFCDBD",
"&X c #F0CDBD",
"*X c #F1CDBF",
"=X c #F0CEBE",
"-X c #F1CEBF",
";X c #F2CFC0",
":X c #F3D0C1",
">X c #F4D1C1",
",X c #F5D2C2",
"<X c #F6D3C2",
"1X c #F6D3C3",
"2X c #F7D2C4",
"3X c #F7D3C4",
"4X c #F8D3C3",
"5X c #F8D4C4",
"6X c #F9D5C5",
"7X c #FAD6C6",
"8X c None",
/* pixels */
"8X8X8X8X8X8X8X8X8X8X8X8X8X8X8X8X8X8X8X8X8X8X8X8X8X8X8X8X8X8X8X8X8X8X8X8X8X8X8X8X8X8X8X8X8X8X8X8X8X8X8X8X8X8X8X8X8X8X8X8X8X8X8X8X",
"8X8X8X8X8X8X8X8X8X8X8X8X8X8X8X8X8X8X8X8X8X8X8X8X8X8X8X8X8X8X8X8X8X8X8X8X8X8X8X8X8X8X8X8X8X8X8X8X8X8X8X8X8X8X8X8X8X8X8X8X8X8X8X8X",
"8X8X8X8X8X8X8X8X8X8X8X8X8X8X8X8X8X8X8X8X8X8X8X8X8X8X8X8X8X            8X8X    8X8X8X8X8X8X8X8X8X8X8X8X8X8X8X8X8X8X8X8X8X8X8X8X8X",
"8X8X8X8X8X8X8X8X8X8X8X8X8X8X8X8X8X8X8X8X8X8X8X8X8X8X8X8X                        8X8X8X8X8X8X8X8X8X8X8X8X8X8X8X8X8X8X8X8X8X8X8X8X",
"8X8X8X8X8X8X8X8X8X8X8X8X8X8X8X8X8X8X8X8X8X8X8X8X8X        e p.m.m.p.e     e e     8X8X8X8X8X8X8X8X8X8X8X8X8X8X8X8X8X8X8X8X8X8X8X",
"8X8X8X8X8X8X8X8X8X8X8X8X8X8X8X8X8X8X8X8X8X8X8X8X        r p.m.m.m.m.p.r r p.p.    8X8X8X8X              8X8X8X8X8X8X8X8X8X8X8X8X",
"8X8X8X8X8X8X8X8X8X8X8X8X8X8X8X8X8X8X8X8X8X8X8X8X  o y.m.m.m.m.m.m.m.m.m.m.m.y.    8X8X8X8X                8X8X8X8X8X8X8X8X8X8X8X",
"8X8X8X8X8X8X8X8X8X8X8X8X8X8X8X8X8X8X8X8X8X8X8X    ~ m.m.m.m.m.n.j > ! e.u.^ o     8X8X8X8X  $.7X7X7XW.@   8X8X8X8X8X8X8X8X8X8X8X",
"8X8X8X8X8X8X8X8X8X8X8X8X8X8X8X8X8X8X8X8X8X8X8X    e p.m.m.m.m.t.                8X8X8X8X    v.7X7X7X7X7.    8X8X8X8X8X8X8X8X8X8X",
"8X8X8X8X8X8X8X8X8X8X8X8X8X8X8X8X8X8X8X8X8X8X8X8X    w r.q t i.0   g.M.$.&   8X8X8X8X8X8X    ).7X    A B     8X8X8X8X8X8X8X8X8X8X",
"8X8X8X8X8X8X8X8X8X8X8X8X8X8X8X8X8X8X8X8X8X8X8X8X8X          :   f 3X7X7X$.  8X8X8X8X8X8X    g.7X          8X8X8X8X8X8X8X8X8X8X8X",
"8X8X8X8X8X8X8X8X8X8X8X8X8X8X8X8X8X8X8X8X8X8X8X8X8X8X    B.N     Z.7X7X7Xv.    8X8X8X8X8X8X  = }.7X.Xs     8X8X8X8X8X8X8X8X8X8X8X",
"8X8X8X8X8X8X8X8X8X8X8X8X8X8X8X8X8X8X8X8X8X8X8X8X8X8X    ;X+XJ P 1X7X7X7X_     8X8X8X8X8X8X    @.7X7XW.@   8X8X8X8X8X8X8X8X8X8X8X",
"8X8X8X8X8X8X8X8X8X8X8X8X8X8X8X8X8X8X8X8X8X8X8X8X8X8X    9.7X7X7X7X7X7X7X      8X8X8X8X8X8X8X    K.7X7X8.    8X8X8X8X8X8X8X8X8X8X",
"8X8X8X8X8X8X8X8X8X8X8X8X8X8X8X8X8X8X8X8X8X8X8X8X8X8X8X  @ W.7X7X7X7X1XZ.    8X8X8X8X8X8X8X8X8X  z >X7X;Xn     8X8X8X8X8X8X8X8X8X",
"8X8X8X8X8X8X8X8X8X8X8X8X8X8X8X8X8X8X8X8X8X8X8X8X8X8X8X    Z 7X7X7X7XL       8X8X8X8X8X8X8X8X8X    g.7X7XW.@   8X8X8X8X8X8X8X8X8X",
"8X8X8X8X8X8X8X8X8X8X8X8X8X8X8X8X8X8X8X8X8X8X8X8X8X8X8X8X  n 7X7X7X7Xl     8X8X8X8X8X8X8X8X8X8X8X  * }.7X7X8.    8X8X8X8X8X8X8X8X",
"8X8X8X8X8X8X8X8X8X8X8X8X8X8X8X8X8X8X8X8X8X8X8X8X          Z.7X7X7X7XZ.          8X8X8X8X            @.7X7X;Xn     8X8X8X8X8X8X8X",
"8X8X8X8X8X8X8X8X8X8X8X8X8X8X8X                          Y 1X[.&X7X4XE.U             8X                J.7X7XW.@   8X8X8X8X8X8X8X",
"8X8X8X8X8X8X8X8X8X8X8X8X8X                  4 $.M.`.7X7X7X*.. A.7XL.  / 7X6XR.5.7       V +X7X7X+XV   C 7X7X7X8.    8X8X8X8X8X8X",
"8X8X8X8X8X8X8X8X8X8X8X8X    @ 9.;X7X7X7X7X7X7X7X7X7X7X7X7Xs.  ' 7X;.  1.7X7X7X7X3XZ.N K +X7X7X7X7X<.  M 7X7X7X;X    8X8X8X8X8X8X",
"8X8X8X8X8X8X8X8X8X8X      m Q.7X7X7X7X7X7X7X7X7X7X7X7X7X7X XX u 2X)   Y.7X7X7X7X7X7X7X7X7X7X7X7XU.@ @ Y.7X7X7X7X    8X8X8X8X8X8X",
"8X8X8X8X8X8X8X8X8X    @ 9.;X7X7X7XU.x         H 7X7X7X7X7X7X~.6X7X7X(.6X7X7X7X7X7X7X'.7X7X7X        4.7X7X7X7X7X    8X8X8X8X8X8X",
"8X8X8X8X8X8X8X      n W.7X7X7X*X4.@           5 7X7X7X7X7X7X7X7X7X7X7X7X7X7X7X7X7XS   /.7X7X      G *X7X7X7X7X).    8X8X8X8X8X8X",
"8X8X8X8X8X8X    @ 9.;X7X7X7X7XS.  @ 4.*X7X>.  >.7X7X7X7X7X7X7X7X7X7X7X7X7X7X7X7X7X}   x.7X7X7X7X7X7X7X7X7X7XC.*     8X8X8X8X8X8X",
"8X8X8X8X8X8X    W.7X7X7X7X7X7X7X4.U.7X7X^.<   P.7X7X7X7X    7X7X7X7X7X7X7X7X    7Xz.  } 7X7X7X7X7X7X7X7X=X&.      8X8X8X8X8X8X8X",
"8X8X8X8X8X8X    7X7X7X7X7X` L +X7X7X3Xd.#     Z.7X7X7X7X    7X7X7X7X7X7X7X7X    7XT.                          8X8X8X8X8X8X8X8X8X",
"8X8X8X8X8X8X    $X7X7X7X7Xf                   f 3X7X7X7X7X7X7X7X7X7X7X7X7X7X7X7X+XN                         8X8X8X8X8X8X8X8X8X8X",
"8X8X8X8X8X8X    ` ,X7X7X7Xd.            8X8X    Z.7X7X7X7X7X7X2Xb.p p b.2X7X7X+XV     8X8X8X8X8X8X8X8X8X8X8X8X8X8X8X8X8X8X8X8X8X",
"8X8X8X8X8X8X8X    =.7X7X7XoX#   8X8X8X8X8X8X8X                                      8X8X8X8X8X8X8X8X8X8X8X8X8X8X8X8X8X8X8X8X8X8X",
"8X8X8X8X8X8X8X8X    h.7X7X7X+.  8X8X8X8X8X8X8X                  p b.b.p           8X8X8X8X8X8X8X8X8X8X8X8X8X8X8X8X8X8X8X8X8X8X8X",
"8X8X8X8X8X8X8X8X8X  X D.7X7XG.    8X8X8X8X8X8X    q.7X7X7X7X7X7X7X7X7X7X7X7Xg.    8X8X8X8X8X8X8X8X8X8X8X8X8X8X8X8X8X8X8X8X8X8X8X",
"8X8X8X8X8X8X8X8X8X8X  $ Q.7X5XY       8X8X8X8X8X  F 7X7X7X7X7X2Xb.p p b.2X7XQ   8X8X8X8X8X8X8X8X8X8X8X8X8X8X8X8X8X8X8X8X8X8X8X8X",
"8X8X8X8X8X8X8X8X8X8X    3 {.7X1XZ.f       8X8X8X  . |.7X7X7X7XH.        H.$X#   8X8X8X8X8X8X8X8X8X8X8X8X8X8X8X8X8X8X8X8X8X8X8X8X",
"8X8X8X8X8X8X8X8X8X8X8X        A .X1X-.    8X8X8X    c.7X7X7X7X7X#.b.b.#.7XD.    8X8X8X8X8X8X8X8X8X8X8X8X8X8X8X8X8X8X8X8X8X8X8X8X",
"8X8X8X8X8X8X8X8X8X8X8X          j.3Xk   8X8X8X8X8X  ] 7X7X7X7X7X7X7X7X7X7X=.  8X8X8X8X8X8X8X8X8X8X8X8X8X8X8X8X8X8X8X8X8X8X8X8X8X",
"8X8X8X8X8X8X8X8X8X8X8X    7..Xk.7XZ.    8X8X8X8X8X                            8X8X8X8X8X8X8X8X8X8X8X8X8X8X8X8X8X8X8X8X8X8X8X8X8X",
"8X8X8X8X8X8X8X8X8X8X8X8X  @ D.v.$.;   8X8X8X8X8X8X                              8X8X8X8X8X8X8X8X8X8X8X8X8X8X8X8X8X8X8X8X8X8X8X8X",
"8X8X8X8X8X8X8X8X8X8X8X8X              8X8X8X8X8X    b O.O.O.O.O.O.O.O.O.O...2     8X8X8X8X8X8X8X8X8X8X8X8X8X8X8X8X8X8X8X8X8X8X8X",
"8X8X8X8X8X8X8X8X8X8X8X8X8X      8X8X8X8X8X8X8X8X  % X.O.O.O.O.O.O.O.O.O.O.O.o.v       8X8X8X8X8X8X8X8X8X8X8X8X8X8X8X8X8X8X8X8X8X",
"8X8X8X8X8X8X8X8X8X8X8X8X8X8X8X8X8X8X8X8X8X8X8X    T O.O.O.O.O.O.O.O.O.O.O.O.O.O.R +     8X8X8X8X8X8X8X8X8X8X8X8X8X8X8X8X8X8X8X8X",
"8X8X8X8X8X8X8X8X8X8X8X8X8X8X8X8X8X8X8X8X8X8X8X    o.O.O.O.     .O.O. .    O.O.O.O.| O     8X8X8X8X8X8X8X8X8X8X8X8X8X8X8X8X8X8X8X",
"8X8X8X8X8X8X8X8X8X8X8X8X8X8X8X8X8X8X8X8X8X8X8X    O.O.O.O.1   -  . .-   1 O.O.o.E -         8X8X8X8X8X8X8X8X8X8X8X8X8X8X8X8X8X8X",
"8X8X8X8X8X8X8X8X8X8X8X8X8X8X8X8X8X8X8X8X8X8X8X    O.O.O.O. .-         -  .o.E -     f a.@   8X8X8X8X8X8X8X8X8X8X8X8X8X8X8X8X8X8X",
"8X8X8X8X8X8X8X8X8X8X8X8X8X8X8X8X8X8X8X8X8X8X8X    O.O.O.O.O. .        c E -     f Z.3X7X8.    8X8X8X8X8X8X8X8X8X8X8X8X8X8X8X8X8X",
"8X8X8X8X8X8X8X8X8X8X8X8X8X8X8X8X8X8X8X8X8X8X8X                    8X        f Z.3Xk..X7X;Xn     8X8X8X8X8X8X8X8X8X8X8X8X8X8X8X8X",
"8X8X8X8X8X8X8X8X8X8X8X8X8X8X8X8X8X8X8X8X8X                        8X      0.3X7Xj.  g .X7XW.@   8X8X8X8X8X8X8X8X8X8X8X8X8X8X8X8X",
"8X8X8X8X8X8X8X8X8X8X8X8X8X8X8X8X8X8X8X8X    * f.~.7X7X7X7X7X7X    8X8X    * V.7XOXh       7X8.    8X8X8X8X8X8X8X8X8X8X8X8X8X8X8X",
"8X8X8X8X8X8X8X8X8X8X8X8X8X8X8X8X8X8X      @.|.I.  ( 7X7X7X7X+X    8X8X8X      %.%X.XA     7X!.    8X8X8X8X8X8X8X8X8X8X8X8X8X8X8X",
"8X8X8X8X8X8X8X8X8X8X8X8X8X8X8X8X8X8X  6 K.7X7X:.  ,.7X7X7X+XV     8X8X8X8X8X    I 7X7X7X7X7Xw.    8X8X8X8X8X8X8X8X8X8X8X8X8X8X8X",
"8X8X8X8X8X8X8X8X8X8X8X8X8X8X8X8X8X    Z.7X<Xb.,   I.7X7X+XV     8X8X8X8X8X8X8X  i 7XH.2X7X7XJ   8X8X8X8X8X8X8X8X8X8X8X8X8X8X8X8X",
"8X8X8X8X8X8X8X8X8X8X8X8X8X8X8X8X8X  d :Xb.y     D 6X7X@XC     8X8X8X8X8X8X8X    6.#.  b.7XXX.   8X8X8X8X8X8X8X8X8X8X8X8X8X8X8X8X",
"8X8X8X8X8X8X8X8X8X8X8X8X8X8X8X8X    Z.H.    y b.2X#Xl.8     8X8X8X8X8X8X8X8X    R.b.  a 7XB.    8X8X8X8X8X8X8X8X8X8X8X8X8X8X8X8X",
"8X8X8X8X8X8X8X8X8X8X8X8X8X8X8X8X  f 1X7X#.b.2X_.3.=       8X8X8X8X8X8X8X8X8X    ].2X    7X{   8X8X8X8X8X8X8X8X8X8X8X8X8X8X8X8X8X",
"8X8X8X8X8X8X8X8X8X8X8X8X8X8X8X    Z.7X7X5XK.[ .       8X8X8X8X8X8X8X8X8X8X8X    M.7X    -X&   8X8X8X8X8X8X8X8X8X8X8X8X8X8X8X8X8X",
"8X8X8X8X8X8X8X8X8X8X8X8X8X8X8X  f 1X7X7XW         8X8X8X8X8X8X8X8X8X8X8X8X8X8X  $.7X    F.    8X8X8X8X8X8X8X8X8X8X8X8X8X8X8X8X8X",
"8X8X8X8X8X8X8X8X8X8X8X8X8X8X    N.7X7X7X    8X8X8X8X8X8X8X8X8X8X8X8X8X8X8X8X8X  4 7X7X7X2.  8X8X8X8X8X8X8X8X8X8X8X8X8X8X8X8X8X8X",
"8X8X8X8X8X8X8X8X8X8X8X8X8X8X    N +X7X7X    8X8X8X8X8X8X8X8X8X8X8X8X8X8X8X8X8X    `.7X7X9   8X8X8X8X8X8X8X8X8X8X8X8X8X8X8X8X8X8X",
"8X8X8X8X8X8X8X8X8X8X8X8X8X8X8X    V +X7XU       8X8X8X8X8X8X8X8X8X8X8X8X8X8X8X    v.7X7X_       8X8X8X8X8X8X8X8X8X8X8X8X8X8X8X8X",
"8X8X8X8X8X8X8X8X8X8X8X8X8X8X8X8X    V +X3XZ.    8X8X8X8X8X8X8X8X8X8X8X8X8X8X8X8X  $.7X7X1XZ.    8X8X8X8X8X8X8X8X8X8X8X8X8X8X8X8X",
"8X8X8X8X8X8X8X8X8X8X8X8X8X8X8X8X8X              8X8X8X8X8X8X8X8X8X8X8X8X8X8X8X8X                8X8X8X8X8X8X8X8X8X8X8X8X8X8X8X8X",
"8X8X8X8X8X8X8X8X8X8X8X8X8X8X8X8X8X8X            8X8X8X8X8X8X8X8X8X8X8X8X8X8X8X8X                8X8X8X8X8X8X8X8X8X8X8X8X8X8X8X8X",
"8X8X8X8X8X8X8X8X8X8X8X8X8X8X8X8X8X8X8X8X8X8X8X8X8X8X8X8X8X8X8X8X8X8X8X8X8X8X8X8X8X8X8X8X8X8X8X8X8X8X8X8X8X8X8X8X8X8X8X8X8X8X8X8X",
"8X8X8X8X8X8X8X8X8X8X8X8X8X8X8X8X8X8X8X8X8X8X8X8X8X8X8X8X8X8X8X8X8X8X8X8X8X8X8X8X8X8X8X8X8X8X8X8X8X8X8X8X8X8X8X8X8X8X8X8X8X8X8X8X"
};
