/* XPM */
static char *result[] = {
/* columns rows colors chars-per-pixel */
"64 64 9 1 ",
"  c #000008",
". c #071F00",
"X c #133B07",
"o c #501B03",
"O c #235B13",
"+ c #3B7727",
"@ c #872F00",
"# c #905710",
"$ c #F39317",
/* pixels */
"................................................................",
".O++++++++++++++++++++++++++++++++++++++++++++++++++++++++++++O.",
".+O++++++++++++++++++++++++++++++++++++++++++++++++++++++++++OX.",
".++O++++++++++++++++++++++++++++++++++++++++++++++++++++++++OXX.",
".+++OOOOOOOOOOOOOOOOOOOOOOOOOOOOOOOOOOOOOOOOOOOOOOOOOOOOOOOOXXX.",
".++++OOOOOOOOOOOOOOOOOOOOOOOOOOOOOOOOOOOOOOOOOOOOOOOOOOOOOOOXXX.",
".++++OOOOOOOOOOOOOOOOOOOOOOOOOOOOOOOOOOOOOOOOOOOOOOOOOOOOOOOXXX.",
".++++OOOOOOOOOOOOOOOOOOOOOOOOOOOOOOOOOOOOOOOOOOOOOOOOOOOOOOOXXX.",
".++++OOOOOOOOOOOOOOOOOOOOOOOOOOOOOOOOOOOOOOOOOOOOOOOOOOOOOOOXXX.",
".++++OOOOOOOOOOOOOOOOOOOOOOOOOOOOOOOOOOOOOOOOOOOOOOOOOOOOOOOXXX.",
".++++OOOOOOOOOOOOOOOOOOOOOOOOOOOOOOOOOOOOOOOOOOOOOOOOOOOOOOOXXX.",
".++++OOOOOOOOOOOOOOOOOOOOOOOOOOOOOOOOOOOOOOOOOOOOOOOOOOOOOOOXXX.",
".++++OOOOOOOOOOOOOOOOOOOOOOOOOOOOOOOOOOOOOOOOOOOOOOOOOOOOOOOXXX.",
".++++OOOOOOOOOOOOOOOOOOOOOOOOOOOOOOOOOOOOOOOOOOOOOOOOOOOOOOOXXX.",
".++++OOOOOOOOOOOOOOOOOOOOOOOOOOOOOOOOOOOOOOOOOOOOOOOOOOOOOOOXXX.",
".++++OOOOOOOOOOOOOOOOOOOOOOOOOOOOOOOOOOOOOOOOOOOOOOOOOOOOOOOXXX.",
".++++OOOOOOOOOOOOOOOOOOOOOOOOOOOOOOOOOOOOOOOOOOOOOOOOOOOOOOOXXX.",
".++++OOOOOOOOOOOOOOOOOOOOOOOOOOOOOOOOOOOOOOOOOOOOOOOOOOOOOOOXXX.",
".++++OOOOOOOOOOOOOOOOOOOOOOOOOOOOOOOOOOOOOOOOOOOOOOOOOOOOOOOXXX.",
".+++OOOOOOOOOOOOOOOOOOOOOOOOOOOOOOOOOOOOOOOOOOOOOOOOOOOOOOOOXXX.",
".++OXXXXXXXXXXXXXXXXXXXXXXXXXXXXXXXXXXXXXXXXXXXXXXXXXXXXXXXXOXX.",
".+OXXXXXXXXXXXXXXXXXXXXXXXXXXXXXXXXXXXXXXXXXXXXXXXXXXXXXXXXXXOX.",
".OXXXXXXXXXXXXXXXXXXXXXXXXXXXXXXXXXXXXXXXXXXXXXXXXXXXXXXXXXXXXO.",
"................................................................",
"#######o       o#######o       o#######o       o#######o       o",
"######o       o#######o       o#######o       o#######o       o#",
"$$$$$@       @$$$$$$$@       @$$$$$$$@       @$$$$$$$@       @$$",
"$$$$@       @$$$$$$$@       @$$$$$$$@       @$$$$$$$@       @$$$",
"$$$@       @$$$$$$$@       @$$$$$$$@       @$$$$$$$@       @$$$$",
"$$@       @$$$$$$$@       @$$$$$$$@       @$$$$$$$@       @$$$$$",
"$@       @$$$$$$$@       @$$$$$$$@       @$$$$$$$@       @$$$$$$",
"@       @$$$$$$$@       @$$$$$$$@       @$$$$$$$@       @$$$$$$$",
"       @$$$$$$$@       @$$$$$$$@       @$$$$$$$@       @$$$$$$$@",
"      @$$$$$$$@       @$$$$$$$@       @$$$$$$$@       @$$$$$$$@ ",
"     @$$$$$$$@       @$$$$$$$@       @$$$$$$$@       @$$$$$$$@  ",
"    @$$$$$$$@       @$$$$$$$@       @$$$$$$$@       @$$$$$$$@   ",
"   @$$$$$$$@       @$$$$$$$@       @$$$$$$$@       @$$$$$$$@    ",
"  @$$$$$$$@       @$$$$$$$@       @$$$$$$$@       @$$$$$$$@     ",
" @$$$$$$$@       @$$$$$$$@       @$$$$$$$@       @$$$$$$$@      ",
"@$$$$$$$@       @$$$$$$$@       @$$$$$$$@       @$$$$$$$@       ",
"................................................................",
".O++++++++++++++++++++++++++++++++++++++++++++++++++++++++++++O.",
".+O++++++++++++++++++++++++++++++++++++++++++++++++++++++++++OX.",
".++O++++++++++++++++++++++++++++++++++++++++++++++++++++++++OXX.",
".+++OOOOOOOOOOOOOOOOOOOOOOOOOOOOOOOOOOOOOOOOOOOOOOOOOOOOOOOOXXX.",
".++++OOOOOOOOOOOOOOOOOOOOOOOOOOOOOOOOOOOOOOOOOOOOOOOOOOOOOOOXXX.",
".++++OOOOOOOOOOOOOOOOOOOOOOOOOOOOOOOOOOOOOOOOOOOOOOOOOOOOOOOXXX.",
".++++OOOOOOOOOOOOOOOOOOOOOOOOOOOOOOOOOOOOOOOOOOOOOOOOOOOOOOOXXX.",
".++++OOOOOOOOOOOOOOOOOOOOOOOOOOOOOOOOOOOOOOOOOOOOOOOOOOOOOOOXXX.",
".++++OOOOOOOOOOOOOOOOOOOOOOOOOOOOOOOOOOOOOOOOOOOOOOOOOOOOOOOXXX.",
".++++OOOOOOOOOOOOOOOOOOOOOOOOOOOOOOOOOOOOOOOOOOOOOOOOOOOOOOOXXX.",
".++++OOOOOOOOOOOOOOOOOOOOOOOOOOOOOOOOOOOOOOOOOOOOOOOOOOOOOOOXXX.",
".++++OOOOOOOOOOOOOOOOOOOOOOOOOOOOOOOOOOOOOOOOOOOOOOOOOOOOOOOXXX.",
".++++OOOOOOOOOOOOOOOOOOOOOOOOOOOOOOOOOOOOOOOOOOOOOOOOOOOOOOOXXX.",
".++++OOOOOOOOOOOOOOOOOOOOOOOOOOOOOOOOOOOOOOOOOOOOOOOOOOOOOOOXXX.",
".++++OOOOOOOOOOOOOOOOOOOOOOOOOOOOOOOOOOOOOOOOOOOOOOOOOOOOOOOXXX.",
".++++OOOOOOOOOOOOOOOOOOOOOOOOOOOOOOOOOOOOOOOOOOOOOOOOOOOOOOOXXX.",
".++++OOOOOOOOOOOOOOOOOOOOOOOOOOOOOOOOOOOOOOOOOOOOOOOOOOOOOOOXXX.",
".++++OOOOOOOOOOOOOOOOOOOOOOOOOOOOOOOOOOOOOOOOOOOOOOOOOOOOOOOXXX.",
".+++OOOOOOOOOOOOOOOOOOOOOOOOOOOOOOOOOOOOOOOOOOOOOOOOOOOOOOOOXXX.",
".++OXXXXXXXXXXXXXXXXXXXXXXXXXXXXXXXXXXXXXXXXXXXXXXXXXXXXXXXXOXX.",
".+OXXXXXXXXXXXXXXXXXXXXXXXXXXXXXXXXXXXXXXXXXXXXXXXXXXXXXXXXXXOX.",
".OXXXXXXXXXXXXXXXXXXXXXXXXXXXXXXXXXXXXXXXXXXXXXXXXXXXXXXXXXXXXO.",
"................................................................"
};
